<?xml version="1.0" standalone="no"?>
<!DOCTYPE svg PUBLIC "-//W3C//DTD SVG 20010904//EN"
 "http://www.w3.org/TR/2001/REC-SVG-20010904/DTD/svg10.dtd">
<svg version="1.0" xmlns="http://www.w3.org/2000/svg"
 width="640.000000pt" height="640.000000pt" viewBox="0 0 640.000000 640.000000"
 preserveAspectRatio="xMidYMid meet">
<metadata>
Created by potrace 1.14, written by Peter Selinger 2001-2017
</metadata>
<g transform="translate(0.000000,640.000000) scale(0.100000,-0.100000)"
fill="#000000" stroke="none">
<path d="M3095 5412 c-2 -2 -25 -5 -52 -7 -26 -1 -59 -7 -73 -12 -14 -6 -31
-8 -37 -6 -7 3 -13 0 -13 -7 0 -6 -5 -8 -10 -5 -17 11 -120 -45 -120 -65 0
-10 -6 -23 -14 -29 -8 -7 -13 -20 -11 -29 1 -9 0 -21 -4 -27 -8 -13 -10 -107
-2 -120 3 -5 7 -18 8 -28 8 -52 78 -135 146 -173 17 -10 17 -11 1 -25 -16 -12
-17 -12 -9 1 8 13 7 13 -8 1 -14 -11 -17 -11 -17 0 0 9 -3 10 -8 4 -7 -10 -43
-17 -94 -19 -16 -1 -28 -5 -28 -9 0 -5 -8 -7 -17 -5 -10 1 -22 0 -28 -3 -5 -4
-44 -14 -85 -24 -41 -10 -79 -21 -84 -26 -6 -5 -16 -9 -23 -9 -7 0 -37 -11
-68 -25 -30 -13 -58 -24 -61 -24 -2 0 -11 -6 -19 -13 -33 -30 -45 -38 -45 -33
0 4 -7 0 -15 -9 -8 -8 -15 -20 -15 -27 0 -7 -3 -9 -6 -6 -4 3 -16 -6 -28 -21
-11 -15 -25 -33 -31 -40 -5 -7 -17 -22 -27 -32 -9 -10 -14 -20 -12 -23 3 -2
-6 -24 -19 -48 -15 -30 -28 -43 -40 -41 -9 2 -17 -2 -17 -8 0 -5 -3 -9 -7 -9
-5 1 -11 0 -15 -1 -5 -1 -11 -3 -15 -4 -46 -12 -93 -31 -93 -38 0 -4 -7 -8
-15 -8 -8 0 -15 -4 -15 -10 0 -5 -7 -10 -16 -10 -8 0 -13 -4 -10 -9 3 -5 -1
-11 -9 -15 -8 -3 -15 -12 -15 -21 0 -8 -4 -15 -8 -15 -15 0 -3 -129 17 -169
14 -30 3 -54 -43 -89 -16 -12 -26 -22 -23 -22 3 0 -27 -32 -66 -71 -40 -39
-71 -76 -69 -81 1 -5 -2 -7 -7 -3 -6 3 -16 -3 -23 -15 -7 -11 -20 -20 -28 -20
-18 0 -100 72 -100 88 0 7 -7 12 -16 12 -8 0 -12 5 -9 10 3 6 1 10 -5 10 -6 0
-8 5 -5 10 3 6 1 10 -5 10 -13 0 -80 68 -80 81 0 4 -9 11 -21 14 -11 4 -18 9
-15 12 2 3 -6 15 -19 27 -12 11 -34 31 -46 43 -13 11 -36 35 -51 51 -14 17
-29 28 -32 25 -3 -3 -15 6 -27 20 -11 15 -27 27 -35 27 -8 0 -14 4 -14 8 0 4
-25 24 -55 43 -30 18 -55 38 -55 42 0 5 -4 6 -9 2 -5 -3 -16 2 -24 10 -9 8
-18 15 -21 15 -4 0 -24 11 -45 24 -21 14 -41 23 -43 20 -3 -2 -11 2 -18 11 -7
8 -20 15 -29 15 -9 0 -27 7 -39 16 -12 8 -22 12 -22 8 0 -3 -6 -1 -14 5 -7 6
-21 9 -30 5 -9 -3 -16 -2 -16 2 0 14 -81 15 -97 2 -7 -6 -16 -8 -20 -5 -3 3
-24 -7 -47 -22 -22 -16 -43 -28 -46 -27 -3 0 -22 -16 -42 -36 -20 -21 -40 -38
-43 -38 -4 0 -24 -17 -43 -37 -20 -21 -39 -37 -44 -35 -4 1 -8 -4 -8 -10 -1
-7 -14 -24 -30 -38 -17 -13 -30 -30 -30 -38 0 -7 -4 -10 -10 -7 -5 3 -10 -1
-10 -9 0 -9 -8 -16 -17 -16 -15 0 -16 -2 -3 -10 13 -9 7 -14 -12 -11 -5 0 -8
-6 -8 -14 0 -8 -4 -15 -9 -15 -4 0 -7 -12 -6 -27 3 -41 4 -43 20 -37 8 4 15 2
15 -2 0 -5 50 -10 110 -10 91 -1 114 -5 130 -19 11 -10 20 -15 20 -11 0 5 20
-16 45 -46 24 -29 45 -59 45 -65 0 -7 5 -13 10 -13 6 0 10 -9 10 -19 0 -11 4
-22 9 -25 12 -8 73 -167 67 -174 -3 -2 1 -11 9 -19 8 -8 15 -26 15 -39 0 -14
6 -37 14 -52 7 -15 12 -35 11 -44 -2 -10 0 -18 4 -18 4 0 8 -6 8 -12 2 -31 11
-75 21 -98 5 -14 8 -29 5 -33 -3 -4 0 -13 5 -20 5 -7 10 -19 10 -27 1 -28 13
-86 28 -142 4 -13 6 -33 6 -45 0 -13 3 -23 7 -23 4 0 8 -6 9 -12 3 -43 13 -82
23 -94 6 -8 8 -14 4 -14 -4 0 -1 -8 6 -17 12 -15 12 -16 -1 -8 -13 8 -13 7 0
-9 8 -10 15 -25 17 -34 1 -9 7 -18 13 -20 5 -2 8 -8 5 -12 -5 -8 26 -71 83
-172 11 -20 18 -39 14 -44 -4 -4 -2 -4 5 0 7 4 17 -3 25 -17 23 -43 129 -167
142 -167 3 0 15 -8 25 -17 37 -33 50 -43 61 -43 5 0 10 -4 10 -10 0 -5 7 -10
15 -10 8 0 15 -4 15 -9 0 -5 16 -15 35 -22 19 -7 35 -17 35 -21 0 -4 4 -8 10
-8 16 0 60 -42 60 -57 0 -8 7 -16 16 -20 8 -3 13 -12 10 -19 -3 -8 -1 -14 5
-14 6 0 7 -4 4 -10 -3 -5 -1 -10 4 -10 6 0 11 -6 11 -13 0 -7 11 -25 25 -40
14 -15 23 -27 20 -27 -6 0 -2 -6 55 -69 22 -24 40 -47 40 -51 0 -4 11 -13 25
-20 13 -7 22 -16 20 -20 -2 -3 5 -13 17 -21 11 -8 35 -29 54 -48 19 -18 34
-30 34 -27 0 4 6 1 14 -6 8 -7 12 -16 9 -20 -2 -5 1 -8 7 -8 12 0 71 -39 82
-55 4 -5 8 -7 8 -3 0 7 17 -5 64 -47 6 -5 18 -11 26 -13 8 -2 17 -7 20 -11 3
-5 15 -11 28 -15 12 -4 22 -12 22 -17 0 -6 4 -8 9 -5 5 3 12 -1 15 -10 3 -8
10 -12 16 -9 5 3 10 -1 10 -10 0 -9 5 -13 10 -10 6 3 10 1 10 -6 0 -7 3 -10 6
-6 6 6 36 -17 96 -74 21 -20 35 -39 31 -42 -3 -4 -1 -7 6 -7 7 0 10 -3 7 -8
-10 -17 107 -112 138 -112 8 0 16 -5 18 -10 2 -6 13 -12 26 -13 12 0 22 -5 22
-9 0 -4 8 -8 18 -8 10 0 22 -3 26 -7 6 -7 24 -11 59 -15 9 -1 17 -5 17 -8 0
-4 16 -6 35 -5 19 1 35 -2 35 -6 0 -5 5 -9 11 -9 5 0 7 5 3 11 -4 8 0 8 15 0
11 -7 21 -8 21 -4 0 4 5 1 10 -7 7 -11 10 -11 10 -2 0 9 5 10 19 2 11 -5 30
-10 43 -9 28 1 49 -4 67 -15 11 -7 12 -6 6 5 -7 12 -6 12 7 1 9 -7 29 -14 46
-15 16 -1 28 -6 24 -11 -3 -5 5 -7 16 -4 14 4 20 2 16 -4 -5 -7 2 -9 19 -4 14
3 28 2 31 -2 4 -7 45 -8 54 -2 7 7 29 5 40 -3 7 -6 12 -6 12 1 0 6 13 7 34 2
19 -4 37 -6 39 -4 9 10 77 10 80 0 2 -6 9 -6 18 -1 17 11 47 12 76 3 13 -4 25
-3 29 3 4 8 9 7 15 -2 5 -8 9 -9 9 -3 0 7 23 12 58 14 31 1 63 2 70 3 6 0 12
5 12 11 0 6 5 4 10 -4 5 -8 10 -10 10 -5 0 6 19 11 43 13 39 2 82 9 82 12 0 1
18 4 40 6 22 3 42 9 45 13 3 5 13 7 22 5 10 -1 20 2 24 7 3 5 9 7 14 4 9 -5
71 19 141 56 20 10 39 16 43 12 3 -3 6 -1 6 6 0 7 5 9 10 6 6 -3 10 -1 10 5 0
6 4 9 9 5 6 -3 14 3 20 12 6 10 11 14 11 9 0 -4 11 -1 25 8 14 9 25 13 25 9 0
-5 4 -3 8 2 4 6 28 24 54 40 27 17 48 36 48 43 0 7 5 10 10 7 6 -3 10 -1 10 4
0 23 5 28 74 81 18 13 19 13 11 0 -4 -8 2 -5 14 8 12 12 33 22 47 22 14 0 23
4 20 9 -4 5 7 12 24 16 16 4 30 11 30 16 0 5 7 9 15 9 8 0 15 5 15 11 0 5 4 8
9 5 5 -3 11 1 15 9 3 8 11 15 17 15 6 0 20 10 30 22 11 11 19 19 19 16 0 -9
57 43 153 139 107 107 149 153 140 153 -3 0 4 8 15 19 12 10 19 21 15 25 -3 3
0 6 7 6 7 0 11 3 8 6 -3 3 7 19 23 36 15 17 26 35 23 40 -3 4 -1 8 4 8 5 0 21
18 36 40 14 22 24 40 21 40 -3 0 4 9 16 21 11 11 18 27 15 35 -3 8 -2 13 3 10
8 -5 14 4 26 34 20 50 31 70 37 70 4 0 5 6 2 14 -3 7 1 20 8 27 7 8 15 28 16
44 2 17 8 32 13 33 5 2 9 11 9 20 0 17 38 48 53 44 4 -1 7 3 7 8 0 6 7 10 15
10 8 0 15 5 15 10 0 6 7 10 16 10 8 0 12 5 9 10 -3 6 1 10 9 10 9 0 16 4 16 8
0 11 70 87 70 76 0 -5 4 -4 8 2 11 16 112 65 121 59 5 -3 12 2 15 11 3 8 10
13 14 10 10 -6 78 38 108 70 12 13 25 20 28 17 3 -4 6 1 6 10 0 9 4 16 8 14 5
-1 23 13 41 31 18 17 37 32 42 32 6 0 7 5 4 10 -3 6 -2 10 4 10 15 0 101 92
101 108 0 7 3 11 8 9 6 -5 26 11 29 23 7 26 17 39 26 33 6 -4 8 0 4 10 -3 8 1
21 8 27 8 7 13 16 10 20 -3 4 2 11 10 14 8 3 14 9 13 13 -1 4 3 18 10 31 7 12
10 27 7 32 -3 6 -2 10 4 10 6 0 14 12 17 28 4 15 9 32 13 37 6 12 11 31 14 62
1 13 6 23 11 23 4 0 6 6 3 14 -3 8 -3 17 1 21 4 4 8 15 8 26 1 10 3 21 4 24 7
14 5 31 -4 44 -9 12 -8 13 3 6 11 -6 13 -3 9 13 -4 12 -1 22 4 22 6 0 4 8 -3
17 -8 9 -9 14 -2 10 8 -5 10 31 8 145 -4 160 -6 175 -18 196 -5 6 -6 12 -2 12
3 0 1 9 -5 20 -6 12 -7 20 -1 20 5 0 3 13 -5 30 -9 16 -13 34 -9 40 3 5 1 10
-5 10 -6 0 -8 5 -4 11 3 6 2 21 -4 32 -6 12 -18 43 -28 70 -9 26 -21 47 -26
47 -5 0 -7 4 -3 9 3 5 -2 17 -11 25 -8 9 -12 16 -7 16 4 0 3 4 -4 8 -6 4 -13
14 -15 21 -5 24 -31 50 -41 44 -6 -3 -7 -1 -3 6 8 13 -150 171 -171 171 -7 0
-13 5 -13 10 0 6 -7 10 -15 10 -8 0 -15 5 -15 10 0 6 -8 10 -19 10 -10 0 -24
7 -31 15 -7 9 -15 13 -18 10 -3 -3 -14 3 -25 12 -11 10 -17 12 -13 6 9 -16 1
-16 -27 -1 -12 7 -26 13 -32 14 -5 1 -23 5 -40 9 -41 8 -104 17 -137 18 -16 0
-28 5 -28 10 0 5 -6 4 -13 -2 -8 -6 -16 -8 -19 -5 -10 9 -63 11 -80 2 -12 -6
-18 -5 -18 3 0 8 -4 8 -12 2 -7 -5 -30 -9 -51 -9 -20 1 -37 -2 -37 -6 0 -4
-16 -6 -35 -4 -19 1 -35 -2 -35 -7 0 -5 -9 -7 -20 -4 -11 3 -20 2 -20 -2 0 -4
-6 -8 -12 -9 -15 -1 -53 -10 -53 -12 0 -1 -9 -3 -20 -5 -11 -2 -21 -9 -23 -14
-2 -6 -12 -11 -22 -11 -10 0 -25 -6 -32 -12 -7 -7 -30 -21 -50 -32 -20 -10
-46 -27 -57 -37 -11 -11 -25 -19 -31 -19 -5 0 -10 -7 -10 -15 0 -8 -5 -15 -10
-15 -6 0 -22 -12 -36 -27 -13 -16 -41 -45 -61 -65 -20 -21 -33 -38 -30 -38 4
0 -6 -14 -23 -31 -16 -18 -30 -36 -30 -41 0 -5 -8 -4 -19 1 -12 7 -17 19 -16
36 2 14 -1 25 -6 25 -5 0 -9 9 -9 20 0 11 -4 20 -10 20 -5 0 -10 5 -10 11 0 6
-11 20 -25 31 -14 11 -22 24 -19 30 4 6 -1 6 -14 -1 -14 -7 -23 -8 -27 -1 -3
5 -17 10 -31 10 -22 0 -64 31 -64 46 0 4 -24 29 -52 56 -81 76 -91 83 -123
100 -16 8 -47 24 -67 36 -21 12 -38 19 -38 17 0 -3 -10 1 -22 9 -13 8 -34 16
-48 18 -14 2 -31 9 -38 16 -8 7 -18 10 -23 7 -5 -4 -15 -3 -21 2 -14 8 -28 11
-65 15 -13 1 -23 5 -23 9 0 3 -15 7 -32 8 -49 3 -103 9 -103 11 0 7 -36 6 -41
-1 -3 -5 -11 -6 -17 -2 -11 7 -29 10 -99 12 -28 1 -32 21 -10 43 7 7 12 17 12
24 0 6 7 15 16 18 8 3 12 10 9 16 -3 5 -1 10 5 10 6 0 8 5 5 10 -4 6 -2 16 3
23 20 26 31 74 19 87 -9 9 -9 11 -1 7 7 -4 13 5 16 23 3 17 1 30 -3 30 -5 0
-6 7 -3 15 4 8 1 21 -5 29 -6 7 -8 16 -4 19 3 4 1 7 -6 7 -7 0 -10 4 -7 9 15
24 -80 101 -117 95 -9 -1 -17 1 -17 6 0 5 -11 7 -25 5 -14 -1 -25 1 -25 4 0 6
-258 9 -265 3z m2159 -974 c8 13 176 11 176 -2 0 -4 7 -6 15 -2 8 3 19 -2 24
-12 6 -9 11 -14 11 -9 0 11 60 -22 60 -33 0 -6 6 -10 13 -10 7 0 21 -12 32
-27 11 -14 32 -41 47 -60 15 -19 30 -47 33 -64 4 -16 11 -29 17 -29 6 0 8 -6
5 -14 -3 -7 0 -19 6 -25 6 -6 12 -19 13 -28 3 -24 9 -43 21 -72 5 -14 9 -35 7
-48 -1 -13 1 -23 4 -23 4 0 7 -36 7 -81 0 -44 3 -83 6 -85 4 -2 4 -16 1 -30
-4 -21 -2 -25 9 -19 12 8 12 6 0 -8 -8 -10 -12 -33 -9 -57 2 -22 0 -40 -5 -40
-5 0 -7 -7 -4 -15 4 -8 2 -17 -4 -20 -5 -4 -7 -11 -4 -16 4 -5 1 -9 -5 -9 -6
0 -8 -5 -4 -11 3 -6 2 -14 -3 -18 -5 -3 -17 -24 -27 -46 -10 -22 -25 -48 -34
-57 -8 -10 -12 -18 -8 -18 4 0 -2 -10 -13 -22 -11 -11 -18 -25 -15 -30 3 -4 1
-8 -4 -8 -5 0 -22 -20 -38 -45 -15 -25 -35 -45 -43 -45 -8 0 -11 -3 -8 -7 9
-9 -120 -130 -155 -146 -16 -6 -28 -16 -28 -20 0 -5 -4 -5 -10 -2 -5 3 -10 2
-10 -4 0 -5 -9 -9 -20 -8 -19 1 -23 10 -23 50 0 9 -2 17 -6 17 -3 0 -7 15 -9
33 -2 32 -9 70 -12 75 -2 1 -3 10 -4 20 -3 28 -47 156 -59 171 -10 12 -9 13 3
6 10 -6 10 -2 -3 12 -10 11 -20 31 -22 43 -3 13 -9 26 -14 29 -8 6 -32 49 -65
117 -8 17 -22 34 -31 38 -9 3 -13 10 -10 16 3 5 -2 10 -11 10 -10 0 -15 3 -11
6 7 8 -2 19 -91 110 -41 41 -78 74 -83 74 -5 0 -9 9 -9 21 0 13 -4 18 -12 13
-7 -5 -9 -2 -5 9 3 8 0 20 -6 25 -13 11 -15 80 -3 100 4 7 2 12 -6 12 -8 1 -6
6 6 15 14 11 16 15 5 15 -11 1 -11 3 2 13 9 7 14 18 12 25 -3 6 0 12 7 12 6 0
9 4 5 9 -3 5 6 18 20 29 14 11 25 24 25 28 1 9 85 76 105 83 5 2 18 10 28 19
9 8 17 11 17 7 0 -4 9 0 20 10 11 10 20 15 20 10 0 -4 7 -2 15 5 8 6 19 9 25
5 5 -3 10 -1 10 5 0 6 5 8 10 5 6 -3 10 -2 10 3 0 5 6 9 13 10 24 2 47 8 54
15 3 4 10 2 14 -4 4 -7 9 -8 13 -1z"/>
</g>
</svg>
