<?xml version="1.0" encoding="UTF-8"?>
<svg version="1.1" xmlns="http://www.w3.org/2000/svg" width="409" height="409">
<path d="M0 0 C134.97 0 269.94 0 409 0 C409 134.97 409 269.94 409 409 C274.03 409 139.06 409 0 409 C0 274.03 0 139.06 0 0 Z " fill="#FEFEFE" transform="translate(0,0)"/>
<path d="M0 0 C1.43460571 0.0141394 1.43460571 0.0141394 2.89819336 0.02856445 C26.92537521 0.53310914 46.86485203 9.19750915 63.92333984 25.95849609 C65.17348038 27.17836077 66.45326233 28.36771424 67.73828125 29.55078125 C83.51315026 44.402806 95.69846499 64.30345517 105.1875 83.625 C105.51919189 84.27919922 105.85088379 84.93339844 106.19262695 85.60742188 C108.4788586 90.51249641 108.96802064 94.99286812 108.375 100.375 C105.35790991 108.00646317 97.09935283 112.39779004 90.125 115.94140625 C89.34922607 116.34278305 88.57345215 116.74415985 87.77416992 117.15769958 C86.1394644 118.00006436 84.50229068 118.83765502 82.86279297 119.6706543 C80.40187311 120.92381555 77.95271079 122.19796857 75.50390625 123.47460938 C56.29235679 133.37807772 35.57413789 141.11492782 13.9375 134.3125 C-1.17053549 129.1828382 -19.31677304 118.54872793 -26.609375 103.80078125 C-27.54663504 101.77005117 -28.46831404 99.73206392 -29.375 97.6875 C-30.30340102 95.64015835 -31.23555189 93.59451199 -32.171875 91.55078125 C-32.57245117 90.65270752 -32.97302734 89.75463379 -33.38574219 88.8293457 C-34.59137249 86.44159916 -35.95325894 84.45619034 -37.625 82.375 C-43.11012418 82.81380993 -46.25675707 84.0513369 -50.625 87.375 C-51.42808594 87.96152344 -52.23117188 88.54804688 -53.05859375 89.15234375 C-66.90836477 101.14704651 -72.10394789 125.13266756 -73.625 142.375 C-75.05924512 171.49267264 -71.31200013 200.13560141 -52.45703125 223.37890625 C-50.5943886 225.5672406 -50.5943886 225.5672406 -47.625 227.375 C-41.72310721 227.56135248 -35.90856068 225.82397003 -30.375 223.9375 C-29.61558105 223.68162109 -28.85616211 223.42574219 -28.07373047 223.16210938 C-15.94887913 218.90674108 -4.50600162 212.91571852 6.875 207 C21.36456521 199.81644091 36.72622361 197.81877137 52.375 202.375 C55.54334336 203.48763824 58.61277461 204.7768885 61.6875 206.125 C63.00548584 206.697948 63.00548584 206.697948 64.35009766 207.2824707 C71.77702973 210.56590931 79.10388016 214.05709084 86.38754272 217.64538574 C87.61640346 218.25050335 88.84670649 218.8527019 90.07852173 219.45178223 C106.39417596 227.41335192 106.39417596 227.41335192 109.375 233.375 C110.10825824 240.70758237 107.88521275 245.29296272 103.3515625 250.859375 C101.07831794 253.41968458 98.74880311 255.90786787 96.375 258.375 C95.79621094 258.99375 95.21742188 259.6125 94.62109375 260.25 C70.09033321 285.78563507 32.30446779 304.72934629 -3.40014648 305.53613281 C-5.09873726 305.5559827 -6.79740776 305.56972596 -8.49609375 305.578125 C-9.41729507 305.58382507 -10.3384964 305.58952515 -11.28761292 305.59539795 C-13.22973505 305.60479034 -15.1718727 305.61135881 -17.11401367 305.61523438 C-20.02357337 305.62487107 -22.93240437 305.65592176 -25.84179688 305.6875 C-37.7536884 305.75553353 -48.96662791 304.80723473 -60.625 302.375 C-61.69999756 302.16117676 -62.77499512 301.94735352 -63.88256836 301.72705078 C-76.59616194 299.08357761 -89.00018169 295.46820945 -101.3125 291.375 C-102.5284082 290.9720874 -103.74431641 290.5691748 -104.99707031 290.15405273 C-112.29724712 287.67133495 -119.36018779 284.86623909 -126.40039062 281.73754883 C-129.70370019 280.34174547 -133.03126301 279.18067254 -136.4375 278.0625 C-169.39507351 266.49779091 -197.19807779 241.5272819 -212.625 210.375 C-227.42817731 179.34838441 -229.34688559 141.91711724 -218.13671875 109.421875 C-204.84000721 72.94369277 -180.16084542 45.67423024 -144.99145508 29.1730957 C-136.3986289 25.2641201 -127.8507213 22.42352752 -118.625 20.375 C-117.88190582 20.20754272 -117.13881165 20.04008545 -116.37319946 19.86755371 C-103.03480436 16.91939547 -90.33029357 15.72110533 -76.6875 15.875 C-75.31155167 15.88031738 -75.31155167 15.88031738 -73.9078064 15.88574219 C-57.23180513 15.96083736 -41.04536061 17.46442577 -24.625 20.375 C-24.9446875 19.27414063 -25.264375 18.17328125 -25.59375 17.0390625 C-27.22718978 11.23540146 -27.22718978 11.23540146 -26.625 8.375 C-19.72168795 0.74502352 -9.79774238 -0.1512456 0 0 Z " fill="#F2B3C3" transform="translate(254.625,49.625)"/>
<path d="M0 0 C2.93223604 1.75746199 5.47978575 3.69651179 8 6 C8.825 6.7425 9.65 7.485 10.5 8.25 C12 10 12 10 12 12 C11.34773438 12.30292969 10.69546875 12.60585937 10.0234375 12.91796875 C-4.30719651 19.78737296 -10.74384534 30.3846421 -16.05151367 44.96801758 C-26.32717219 74.80370277 -24.43722211 109.49096532 -11.55859375 138.21484375 C-8.59184289 143.97858589 -4.89093563 148.94415436 -0.734375 153.90625 C1 156 1 156 3 159 C-13.36839942 160.04479145 -27.24800863 153.60356936 -39.66015625 143.171875 C-58.06963335 126.08394634 -64.34346765 100.05008776 -65.25390625 75.765625 C-65.71402418 52.72670579 -62.50212269 22.94739412 -45.6328125 5.38671875 C-32.27087873 -5.96133505 -15.96028874 -7.22646407 0 0 Z " fill="#CD6F8F" transform="translate(203,119)"/>
<path d="M0 0 C7.80865526 2.03027199 14.83473183 5.07151509 22.0625 8.625 C23.15143555 9.15625488 24.24037109 9.68750977 25.36230469 10.23486328 C28.58027952 11.81255297 31.79089415 13.40436267 35 15 C35.90024902 15.44279297 36.80049805 15.88558594 37.72802734 16.34179688 C40.07770098 17.50265027 42.41578482 18.68342776 44.75 19.875 C45.42168213 20.20709473 46.09336426 20.53918945 46.78540039 20.88134766 C51.39823796 23.29193884 54.04712248 25.81167842 57 30 C57.98613221 35.91679324 56.24958753 40.16906239 53 45 C50.15695332 48.49069052 47.12040262 51.75691488 44 55 C43.42121094 55.61875 42.84242188 56.2375 42.24609375 56.875 C17.71533321 82.41063507 -20.07053221 101.35434629 -55.77514648 102.16113281 C-57.47373726 102.1809827 -59.17240776 102.19472596 -60.87109375 102.203125 C-62.25289574 102.21167511 -62.25289574 102.21167511 -63.66261292 102.22039795 C-65.60473505 102.22979034 -67.5468727 102.23635881 -69.48901367 102.24023438 C-72.39857337 102.24987107 -75.30740437 102.28092176 -78.21679688 102.3125 C-90.1286884 102.38053353 -101.34162791 101.43223473 -113 99 C-114.61249634 98.67926514 -114.61249634 98.67926514 -116.25756836 98.35205078 C-128.97116194 95.70857761 -141.37518169 92.09320945 -153.6875 88 C-154.9034082 87.5970874 -156.11931641 87.1941748 -157.37207031 86.77905273 C-165.77919557 83.91987275 -173.88965248 80.60219194 -182 77 C-178.65825854 75.88608618 -177.91651638 76.09957824 -174.67578125 77.109375 C-173.81952148 77.36823486 -172.96326172 77.62709473 -172.08105469 77.89379883 C-171.16743164 78.17634521 -170.25380859 78.4588916 -169.3125 78.75 C-125.25205319 91.86899425 -75.29383792 89.2061473 -34.45263672 67.11743164 C-27.16607679 63.02063135 -20.5096329 58.22640239 -14 53 C-13.22124512 52.37569092 -13.22124512 52.37569092 -12.42675781 51.73876953 C-5.99889745 46.54763732 0.14208791 41.07580736 6.0625 35.3125 C6.86675415 34.54728027 6.86675415 34.54728027 7.68725586 33.76660156 C11.78925988 29.68351281 15.6113584 24.78237696 16.22070312 18.85205078 C16.14883446 14.707977 14.74993277 12.29264665 11.9375 9.3125 C8.72328685 6.39836899 5.26225585 4.09905364 1.50390625 1.9453125 C1.00761719 1.63335937 0.51132812 1.32140625 0 1 C0 0.67 0 0.34 0 0 Z " fill="#CD708F" transform="translate(307,253)"/>
<path d="M0 0 C27.02680918 0.47114881 47.01969393 13.07681024 65.45703125 32.15234375 C79.4520438 47.07245683 90.81509404 64.92950879 99.8125 83.25 C100.31003784 84.23129883 100.31003784 84.23129883 100.81762695 85.23242188 C103.1038586 90.13749641 103.59302064 94.61786812 103 100 C99.98290991 107.63146317 91.72435283 112.02279004 84.75 115.56640625 C83.58633911 116.16847145 83.58633911 116.16847145 82.39916992 116.78269958 C80.7644644 117.62506436 79.12729068 118.46265502 77.48779297 119.2956543 C75.02687311 120.54881555 72.57771079 121.82296857 70.12890625 123.09960938 C50.91442824 133.00458738 30.20209697 140.73609663 8.5625 133.9375 C-0.21446621 130.97335391 -8.61777547 126.81466498 -15 120 C-13.81857422 120.17789063 -13.81857422 120.17789063 -12.61328125 120.359375 C2.80371279 122.18387134 13.84646147 115.83011782 26.72900391 108.31689453 C29.6191754 106.64095548 32.53567126 105.01487364 35.45483398 103.39013672 C40.57806897 100.53404177 45.68347224 97.64297453 50.75 94.6875 C51.48734375 94.25824219 52.2246875 93.82898438 52.984375 93.38671875 C56.43784105 91.01078765 58.66228841 89.01313478 60 85 C60.80455843 78.164677 59.31256066 73.17858423 56.25 67.125 C55.85167969 66.31345459 55.45335937 65.50190918 55.04296875 64.66577148 C46.09534929 46.89537511 34.62297333 30.48071609 21 16 C20.42765625 15.36320312 19.8553125 14.72640625 19.265625 14.0703125 C14.51718705 8.98270041 8.92816382 5.57766575 3 2 C2.01 1.34 1.02 0.68 0 0 Z " fill="#CD708F" transform="translate(260,50)"/>
<path d="M0 0 C1.43304064 2.86608129 1.30644155 4.81300783 1 8 C-2.87159743 16.07985551 -11.01983634 19.83885874 -19 23 C-21.23734465 23.64946616 -23.48865716 24.25228045 -25.75 24.8125 C-32.77860689 26.59987744 -39.67012368 28.73774883 -46.56542969 30.98168945 C-52.91195769 33.03234278 -59.26555173 35.02037095 -66 34 C-68.8100346 32.20636089 -70.50940468 30.98119065 -72 28 C-72.55265506 23.99325078 -72.8380437 21.44900459 -70.7890625 17.90625 C-59.32461938 3.91209408 -16.49722557 -12.26793683 0 0 Z " fill="#FDF9FA" transform="translate(167,82)"/>
<path d="M0 0 C0.77085937 -0.01417969 1.54171875 -0.02835937 2.3359375 -0.04296875 C4.8785512 0.21302819 6.45615016 0.85683012 8.625 2.1875 C10.93212385 5.41747339 11.16903353 8.30154618 10.625 12.1875 C8.55727415 15.61515324 6.50371765 17.89459412 2.625 19.1875 C-1.85232458 19.54857456 -4.30626855 19.73323521 -8.3125 17.6875 C-10.6988331 14.79497503 -11.38296179 12.91802423 -11.65234375 9.22265625 C-11.14280278 5.48363028 -9.05536768 3.74319941 -6.375 1.1875 C-4.04904054 0.02452027 -2.58776769 0.02149309 0 0 Z " fill="#FDF8FA" transform="translate(187.375,78.8125)"/>
<path d="M0 0 C6.78026209 1.43254768 13.40965402 3.18979498 20.0625 5.125 C21.02349609 5.40214844 21.98449219 5.67929687 22.97460938 5.96484375 C25.31712279 6.64079289 27.65888777 7.31921699 30 8 C29.67 8.99 29.34 9.98 29 11 C30.32 11.33 31.64 11.66 33 12 C31 13 31 13 28.89624023 12.44262695 C27.61535522 11.97022583 27.61535522 11.97022583 26.30859375 11.48828125 C25.36306641 11.14216797 24.41753906 10.79605469 23.44335938 10.43945312 C22.45142578 10.06755859 21.45949219 9.69566406 20.4375 9.3125 C19.47263672 8.95994141 18.50777344 8.60738281 17.51367188 8.24414062 C11.56897059 6.04849471 5.75339619 3.65658609 0 1 C0 0.67 0 0.34 0 0 Z " fill="#C7869A" transform="translate(125,329)"/>
<path d="M0 0 C2.01692264 0.01005057 4.03385012 0.01917274 6.05078125 0.02734375 C10.95064238 0.04919105 15.85026661 0.08360636 20.75 0.125 C20.75 0.455 20.75 0.785 20.75 1.125 C19.54875488 1.15005615 18.34750977 1.1751123 17.10986328 1.20092773 C12.66313571 1.29493144 8.21656693 1.39516917 3.77001953 1.49731445 C1.84362496 1.54069001 -0.08280871 1.58236314 -2.00927734 1.62231445 C-4.77453408 1.67995362 -7.5395935 1.74366616 -10.3046875 1.80859375 C-11.1693161 1.82530624 -12.0339447 1.84201874 -12.92477417 1.85923767 C-17.22395852 1.84659896 -17.22395852 1.84659896 -21.25 3.125 C-23.4572923 3.19592842 -25.66667452 3.20915025 -27.875 3.1875 C-29.06351563 3.17847656 -30.25203125 3.16945313 -31.4765625 3.16015625 C-32.39179688 3.14855469 -33.30703125 3.13695313 -34.25 3.125 C-34.25 2.795 -34.25 2.465 -34.25 2.125 C-22.92739617 -0.53614192 -11.55343587 -0.10056366 0 0 Z " fill="#EAB8C4" transform="translate(179.25,65.875)"/>
<path d="M0 0 C10.55808656 3.07517084 10.55808656 3.07517084 15 5 C14.67 6.98 14.34 8.96 14 11 C13.49210937 10.61328125 12.98421875 10.2265625 12.4609375 9.828125 C9.19408332 7.3565724 5.93836498 4.91667921 2.5 2.6875 C1.675 2.130625 0.85 1.57375 0 1 C0 0.67 0 0.34 0 0 Z " fill="#C87B93" transform="translate(307,253)"/>
<path d="M0 0 C2.27141109 0.11402064 4.54214552 0.24158505 6.8125 0.375 C8.07707031 0.44460937 9.34164063 0.51421875 10.64453125 0.5859375 C14 1 14 1 17 3 C15.02 3 13.04 3 11 3 C11.99 4.65 12.98 6.3 14 8 C9.33333333 5.66666667 4.66666667 3.33333333 0 1 C0 0.67 0 0.34 0 0 Z " fill="#C47A91" transform="translate(260,50)"/>
<path d="M0 0 C4.455 0.99 4.455 0.99 9 2 C9 2.99 9 3.98 9 5 C9.66 5 10.32 5 11 5 C10.67 5.99 10.34 6.98 10 8 C8.33055479 6.85821872 6.6645052 5.71147095 5 4.5625 C4.071875 3.92441406 3.14375 3.28632813 2.1875 2.62890625 C1.465625 2.09136719 0.74375 1.55382812 0 1 C0 0.67 0 0.34 0 0 Z " fill="#C67D95" transform="translate(245,170)"/>
<path d="M0 0 C2.31 0.66 4.62 1.32 7 2 C6.67 2.99 6.34 3.98 6 5 C7.32 5.33 8.64 5.66 10 6 C9.01 6.495 9.01 6.495 8 7 C1.4375 4.65625 1.4375 4.65625 -1 1 C-0.67 0.67 -0.34 0.34 0 0 Z " fill="#C97A95" transform="translate(148,335)"/>
<path d="M0 0 C0 0.33 0 0.66 0 1 C-6.61809577 3.46254726 -13.00439516 3.18935472 -20 3 C-20 2.67 -20 2.34 -20 2 C-13.25846717 0.74158054 -6.86515862 -0.26404456 0 0 Z " fill="#EEC1CD" transform="translate(165,66)"/>
<path d="M0 0 C-1.52708963 3.43595166 -3.59927045 6.11912454 -6 9 C-6.25 6.75 -6.25 6.75 -6 4 C-2.75675676 0 -2.75675676 0 0 0 Z " fill="#EBBDC8" transform="translate(234,54)"/>
<path d="M0 0 C1.95582488 2.93373731 3.56224304 5.78216298 5 9 C4.67 9.66 4.34 10.32 4 11 C1.9656541 9.58480285 1.09589607 8.45017877 0.578125 6.01953125 C0.33726048 4.01823046 0.16467259 2.0090056 0 0 Z " fill="#C47E96" transform="translate(188,251)"/>
</svg>
