<?xml version="1.0" encoding="UTF-8"?>
<svg version="1.1" xmlns="http://www.w3.org/2000/svg" width="238" height="238">
<path d="M0 0 C78.54 0 157.08 0 238 0 C238 78.54 238 157.08 238 238 C159.46 238 80.92 238 0 238 C0 159.46 0 80.92 0 0 Z " fill="#D19EA2" transform="translate(0,0)"/>
<path d="M0 0 C78.54 0 157.08 0 238 0 C238 78.54 238 157.08 238 238 C159.46 238 80.92 238 0 238 C0 159.46 0 80.92 0 0 Z M43 42 C42.26007812 42.74121094 41.52015625 43.48242188 40.7578125 44.24609375 C19.20007991 67.10400087 9.07420251 102.20030191 9.76171875 133.0390625 C10.89321692 161.98980882 27.85412218 179.94397348 48 199 C51.51639508 202.2010101 55.17350187 205.17583004 59 208 C59.75152344 208.556875 60.50304688 209.11375 61.27734375 209.6875 C76.51980928 220.40276575 94.2766598 224.16669312 112.625 224.25 C113.73746094 224.270625 114.84992188 224.29125 115.99609375 224.3125 C140.13173596 224.42488949 161.11350132 212.46316692 178.1875 196.1875 C184.56961214 189.67473045 191.18543206 181.38078222 192.375 172.0625 C191.40105073 164.108581 183.68395747 158.3453239 178.25610352 152.94042969 C176.6932693 151.38075763 175.1442493 149.8082186 173.59570312 148.234375 C172.58935345 147.22575189 171.58221723 146.21791282 170.57421875 145.2109375 C169.67276123 144.30649902 168.77130371 143.40206055 167.8425293 142.47021484 C163.82851474 138.98195587 159.91709825 136.47023165 154.6875 135.1875 C147.41951794 136.78891977 142.66534186 143.27975421 137.6328125 148.46875 C126.69230501 159.71420885 117.99416037 166.54834038 102 169 C102.3614852 158.00586391 103.30852254 147.71364815 106 137 C106.30550781 135.60007813 106.30550781 135.60007813 106.6171875 134.171875 C111.49863275 112.59709229 120.35759296 85.53015933 139 72 C142.96216899 69.69331152 146.48532955 69.45146704 151 69 C151 69.66 151 70.32 151 71 C151.99854757 72.00145032 152.99882006 73.00118133 154 74 C154.86491254 75.460926 155.6949474 76.94275294 156.5 78.4375 C162.27696553 88.19760557 170.74774624 95.90035812 178.9375 103.625 C179.5761499 104.22924805 180.2147998 104.83349609 180.87280273 105.45605469 C181.78461304 106.30151855 181.78461304 106.30151855 182.71484375 107.1640625 C183.25230225 107.66373535 183.78976074 108.1634082 184.34350586 108.67822266 C189.46569876 112.76540797 194.68224915 112.69789108 201 112 C206.43431122 109.78602135 208.39495556 106.2282596 210.73828125 101.10546875 C212.72482797 96.2159807 214.4747324 91.25942611 216.17578125 86.265625 C217.59100307 82.12743437 219.08821765 78.0237299 220.60546875 73.921875 C221.29845939 72.03423739 221.99033667 70.14619567 222.68179321 68.25799561 C223.36364557 66.40584266 224.05612647 64.55761367 224.7487793 62.70947266 C225.1694165 61.55495605 225.59005371 60.40043945 226.0234375 59.2109375 C226.40419434 58.18274902 226.78495117 57.15456055 227.17724609 56.09521484 C228.45614746 51.28396515 228.76065834 47.46046402 226.4375 43 C223.53902182 39.43264225 220.54139882 35.94825814 217 33 C216.34 33 215.68 33 215 33 C214.5978125 32.13181641 214.5978125 32.13181641 214.1875 31.24609375 C210.20727774 23.71771284 204.10878265 18.56876764 196 16 C183.69614559 14.03901897 175.46247144 20.10469553 165.91796875 26.9765625 C163.63724556 28.55810816 161.51919743 29.86544619 159 31 C158.36835938 30.49210937 157.73671875 29.98421875 157.0859375 29.4609375 C143.36672755 18.9046578 127.9615447 13.39333022 110.6875 13.625 C109.03838623 13.64022705 109.03838623 13.64022705 107.35595703 13.65576172 C82.57901752 14.12794745 60.27576076 24.49758931 43 42 Z " fill="#FEFDFD" transform="translate(0,0)"/>
<path d="M0 0 C4.9841289 4.18436495 9.70917483 8.52661933 14.3125 13.125 C14.93189453 13.73214844 15.55128906 14.33929688 16.18945312 14.96484375 C16.78306641 15.55652344 17.37667969 16.14820313 17.98828125 16.7578125 C18.51977783 17.2852002 19.05127441 17.81258789 19.59887695 18.35595703 C21.60733933 20.71263688 22.89766083 22.90411807 23.1875 26.0078125 C21.93619214 40.13716376 9.83318254 50.98091127 -0.2734375 59.8359375 C-8.72557799 66.54436992 -17.95624609 71.18928161 -28 75 C-28.7321875 75.33257812 -29.464375 75.66515625 -30.21875 76.0078125 C-50.7575387 83.33485229 -76.73244716 80.24661493 -96.3359375 71.3359375 C-105.080415 66.95087694 -111.86802421 61.67599701 -119 55 C-120.41213213 53.78637043 -121.82847841 52.57761808 -123.25 51.375 C-126.90373372 48.20397501 -129.94256352 44.74535968 -133 41 C-130.59402932 42.20000027 -128.1924764 43.40818793 -125.79296875 44.62109375 C-124.59116995 45.22661038 -123.38934642 45.8320779 -122.1875 46.4375 C-121.59646484 46.73720703 -121.00542969 47.03691406 -120.39648438 47.34570312 C-98.20556938 58.5016593 -73.42528571 60.35132559 -49.68359375 52.96875 C-29.6975532 45.84977527 -10.78886579 32.4520368 -0.76171875 13.3125 C0.67577108 8.9484283 0.38090313 4.52851504 0 0 Z " fill="#5E5454" transform="translate(169,145)"/>
<path d="M0 0 C6.31986751 4.55618355 10.45275596 10.90980387 13.6875 17.9375 C13.6875 18.5975 13.6875 19.2575 13.6875 19.9375 C11.955 20.2778125 11.955 20.2778125 10.1875 20.625 C-1.05666612 23.5152258 -8.00904009 31.82254361 -13.77270508 41.46923828 C-21.2839093 54.56464736 -25.73497787 68.5604644 -29.78076172 83.03662109 C-30.26352705 84.76242959 -30.75805805 86.48493605 -31.25390625 88.20703125 C-33.57780462 96.4136482 -34.48074853 104.37597239 -34.875 112.875 C-34.91818359 113.74962891 -34.96136719 114.62425781 -35.00585938 115.52539062 C-35.11096901 117.66261995 -35.21213985 119.80004238 -35.3125 121.9375 C-36.7454769 121.8109166 -38.17762958 121.67498185 -39.609375 121.53515625 C-40.40698242 121.46047119 -41.20458984 121.38578613 -42.02636719 121.30883789 C-46.3886123 120.60027586 -49.14786281 118.50297438 -51.75390625 115 C-59.55309388 102.91237016 -57.53578728 85.09952473 -54.86108398 71.38012695 C-49.66722448 47.62906979 -41.15354343 17.96719714 -21.19140625 2.26953125 C-14.45809663 -2.01530214 -7.54557832 -2.42027984 0 0 Z " fill="#5F5453" transform="translate(137.3125,48.0625)"/>
<path d="M0 0 C1.13199353 0.9080162 2.25532363 1.82683826 3.375 2.75 C4.00148437 3.26046875 4.62796875 3.7709375 5.2734375 4.296875 C7 6 7 6 7.9765625 8.078125 C9.28005115 10.52589758 10.5161615 10.86426715 13 12 C14.8515625 13.5859375 14.8515625 13.5859375 16.625 15.375 C17.21539062 15.96023437 17.80578125 16.54546875 18.4140625 17.1484375 C22.03697027 21.37813771 22.27345709 24.44209205 22 30 C21.08544922 33.37060547 21.08544922 33.37060547 19.8046875 36.8671875 C19.57666443 37.49992081 19.34864136 38.13265411 19.1137085 38.78456116 C18.37801206 40.81872411 17.62696926 42.84680292 16.875 44.875 C16.36407246 46.2751078 15.85414756 47.67558187 15.34521484 49.07641602 C14.59042673 51.15265067 13.8345952 53.22844962 13.07400513 55.30256653 C11.4275122 59.79478912 9.85818147 64.30689686 8.33422852 68.84179688 C5.89741024 76.04236421 3.54622162 82.66237965 -2.125 88 C-6.66447133 89.57894655 -11.2675879 89.83358715 -16 89 C-21.43962244 86.01794803 -25.73353514 81.6944231 -30.1875 77.4375 C-30.89841797 76.76525391 -31.60933594 76.09300781 -32.34179688 75.40039062 C-35.26262635 72.63343364 -38.16525884 69.85534957 -41 67 C-40.505 66.01 -40.505 66.01 -40 65 C-39.01 65.66 -38.02 66.32 -37 67 C-32.24117205 67.70440483 -28.13480871 67.47105267 -23.6875 65.625 C-15.62858005 57.7534968 -12.88529128 44.60369246 -9.3125 34.1875 C-8.44093331 31.66639746 -7.5674609 29.1459646 -6.69316101 26.62580872 C-6.15355605 25.0683092 -5.61586289 23.51014555 -5.08039856 21.95121765 C-4.06064 18.99153328 -3.02726396 16.06699673 -1.84692383 13.16650391 C-0.79889595 10.48555858 -0.58208356 8.05215585 -0.375 5.1875 C-0.30023438 4.21167969 -0.22546875 3.23585938 -0.1484375 2.23046875 C-0.09945312 1.49441406 -0.05046875 0.75835938 0 0 Z " fill="#5F5454" transform="translate(206,23)"/>
<path d="M0 0 C0 0.99 0 1.98 0 3 C-1.67894363 4.64387431 -3.49931268 5.98432779 -5.37109375 7.40234375 C-7.2400824 9.2354765 -7.60874966 10.44860693 -8 13 C-11.80635497 9.79239749 -15.54563567 6.59253891 -19 3 C-18.67 2.34 -18.34 1.68 -18 1 C-16.515 1.99 -16.515 1.99 -15 3 C-10.27751329 3.61632454 -6.19051643 3.57144789 -1.875 1.5 C-1.25625 1.005 -0.6375 0.51 0 0 Z " fill="#69585A" transform="translate(184,87)"/>
<path d="M0 0 C0.51433594 0.2578125 1.02867188 0.515625 1.55859375 0.78125 C3.48630059 1.74356126 5.4165269 2.70082545 7.34765625 3.65625 C8.58596069 4.2707866 9.82424137 4.8853711 11.0625 5.5 C11.68705078 5.80808594 12.31160156 6.11617187 12.95507812 6.43359375 C15.7637006 7.83041133 18.38543581 9.2569572 21 11 C20.01 11.495 20.01 11.495 19 12 C18.01 13.485 18.01 13.485 17 15 C12.0399535 12.83641889 8.80113567 10.21096765 5.125 6.375 C4.62742187 5.87226563 4.12984375 5.36953125 3.6171875 4.8515625 C0 1.15487637 0 1.15487637 0 0 Z " fill="#69595A" transform="translate(36,186)"/>
<path d="M0 0 C0 3 0 3 -1.3125 4.375 C-1.869375 4.91125 -2.42625 5.4475 -3 6 C-3.45375 6.763125 -3.9075 7.52625 -4.375 8.3125 C-6.31220332 11.51633626 -8.55924441 14.16344621 -11 17 C-12.32 16.67 -13.64 16.34 -15 16 C-10.30233025 10.33870569 -5.25276628 5.14771096 0 0 Z " fill="#CAA3A8" transform="translate(144,142)"/>
<path d="M0 0 C0 3 0 3 -1.390625 4.4296875 C-2.00421875 4.90664063 -2.6178125 5.38359375 -3.25 5.875 C-5.59826179 7.77058482 -7.25664986 9.33213511 -9.125 11.75 C-11.23972555 14.28767066 -12.87788439 15.04602023 -16 16 C-5.90769231 3.93846154 -5.90769231 3.93846154 0 0 Z " fill="#C9A4A8" transform="translate(54,32)"/>
<path d="M0 0 C1.98 1.65 3.96 3.3 6 5 C3.25 9.875 3.25 9.875 1 11 C0.67 7.37 0.34 3.74 0 0 Z " fill="#735F5F" transform="translate(169,145)"/>
<path d="M0 0 C2 3 2 3 2 6 C2.66 6 3.32 6 4 6 C4.33 7.32 4.66 8.64 5 10 C4.01 10.495 4.01 10.495 3 11 C2.54625 10.030625 2.0925 9.06125 1.625 8.0625 C0.34213779 4.92920418 0.34213779 4.92920418 -2 4 C-2 3.34 -2 2.68 -2 2 C-3.98 2 -5.96 2 -8 2 C-8 1.67 -8 1.34 -8 1 C-5.36 0.67 -2.72 0.34 0 0 Z " fill="#CDB1B3" transform="translate(153,67)"/>
<path d="M0 0 C-0.33 2.64 -0.66 5.28 -1 8 C-3.04119788 6.38405168 -5.04072937 4.7143618 -7 3 C-7 2.34 -7 1.68 -7 1 C-4.50935112 0.31292445 -2.62113708 0 0 0 Z " fill="#BD9699" transform="translate(37,178)"/>
<path d="M0 0 C0.33 0 0.66 0 1 0 C0.66009167 5.37992836 0.31442207 9.53273547 -3 14 C-4.37095624 10.30962722 -3.60010967 8.29116165 -2.0625 4.75 C-1.68222656 3.85796875 -1.30195313 2.9659375 -0.91015625 2.046875 C-0.60980469 1.37140625 -0.30945313 0.6959375 0 0 Z " fill="#CBA9AC" transform="translate(21,76)"/>
<path d="M0 0 C0.68359375 1.703125 0.68359375 1.703125 1 4 C-0.21484375 6.359375 -0.21484375 6.359375 -1.9375 8.75 C-2.50339844 9.54921875 -3.06929688 10.3484375 -3.65234375 11.171875 C-4.09707031 11.77515625 -4.54179688 12.3784375 -5 13 C-5.33 12.34 -5.66 11.68 -6 11 C-4.78515625 8.3984375 -4.78515625 8.3984375 -3.0625 5.375 C-2.21365234 3.87066406 -2.21365234 3.87066406 -1.34765625 2.3359375 C-0.90292969 1.56507812 -0.45820312 0.79421875 0 0 Z " fill="#70585A" transform="translate(102,67)"/>
<path d="M0 0 C2.31 0 4.62 0 7 0 C7.33 0.66 7.66 1.32 8 2 C3.545 2.495 3.545 2.495 -1 3 C-0.67 2.01 -0.34 1.02 0 0 Z " fill="#CAA7AC" transform="translate(151,136)"/>
<path d="M0 0 C2.475 0.99 2.475 0.99 5 2 C5 3.32 5 4.64 5 6 C3.2925002 4.71937515 1.62626404 3.38232443 0 2 C0 1.34 0 0.68 0 0 Z " fill="#696464" transform="translate(171,94)"/>
</svg>
