<?xml version="1.0" encoding="UTF-8"?>
<svg version="1.1" xmlns="http://www.w3.org/2000/svg" width="736" height="736">
<path d="M0 0 C242.88 0 485.76 0 736 0 C736 242.88 736 485.76 736 736 C493.12 736 250.24 736 0 736 C0 493.12 0 250.24 0 0 Z " fill="#FEFEFE" transform="translate(0,0)"/>
<path d="M0 0 C242.88 0 485.76 0 736 0 C736 242.88 736 485.76 736 736 C493.12 736 250.24 736 0 736 C0 493.12 0 250.24 0 0 Z M352.44775391 50.02197266 C335.91933927 50.1732801 320.18198129 52.75214071 304 56 C301.92721611 56.4069269 299.85430571 56.81321014 297.78125 57.21875 C293.1828946 58.12416445 288.59005289 59.05343379 284 60 C284 60.66 284 61.32 284 62 C283.195625 62.12375 282.39125 62.2475 281.5625 62.375 C274.40308608 63.63103753 267.76623284 65.2958083 261 68 C258.83410567 68.83533864 256.66737379 69.66850752 254.5 70.5 C253.38882813 70.92796875 252.27765625 71.3559375 251.1328125 71.796875 C241.42622951 75.52459016 241.42622951 75.52459016 237 77 C237 77.66 237 78.32 237 79 C236.46632812 79.17015625 235.93265625 79.3403125 235.3828125 79.515625 C229.4828829 81.43463324 223.73695531 83.64054239 218 86 C218 86.66 218 87.32 218 88 C217.05125 88.28875 216.1025 88.5775 215.125 88.875 C211.94788422 89.76825109 211.94788422 89.76825109 210 92 C208.01643517 92.71408334 206.01684563 93.38617742 204 94 C204 94.66 204 95.32 204 96 C201.525 96.495 201.525 96.495 199 97 C199 97.66 199 98.32 199 99 C198.43796875 99.10441406 197.8759375 99.20882812 197.296875 99.31640625 C194.57619529 100.12613235 192.60742193 101.36203338 190.25 102.9375 C189.05117188 103.72447266 189.05117188 103.72447266 187.828125 104.52734375 C187.22484375 105.01332031 186.6215625 105.49929687 186 106 C186 106.66 186 107.32 186 108 C185.360625 108.12375 184.72125 108.2475 184.0625 108.375 C183.381875 108.58125 182.70125 108.7875 182 109 C181.67 109.66 181.34 110.32 181 111 C180.01 111.33 179.02 111.66 178 112 C178 112.66 178 113.32 178 114 C177.278125 114.2475 176.55625 114.495 175.8125 114.75 C172.70060396 116.13306491 170.58741726 117.79122917 168 120 C167.45601563 120.42925781 166.91203125 120.85851562 166.3515625 121.30078125 C164.86187381 122.48623775 163.42657765 123.73930348 162 125 C162 125.66 162 126.32 162 127 C161.278125 127.2475 160.55625 127.495 159.8125 127.75 C156.72393418 129.12269592 154.48988582 130.72353296 152 133 C152 133.66 152 134.32 152 135 C151.443125 135.20625 150.88625 135.4125 150.3125 135.625 C147.74769106 137.15002153 146.30272868 138.98602477 144.47265625 141.30859375 C142.84723958 143.17545162 141.09361523 144.67213945 139.1875 146.25 C135.08000605 149.72617135 131.90764822 153.6835396 128.6640625 157.9609375 C127 160 127 160 125 161 C125 161.99 125 162.98 125 164 C124.34 164 123.68 164 123 164 C122.505 165.485 122.505 165.485 122 167 C120.15670668 168.96617954 118.22419648 170.79181755 116.25 172.625 C114.77577574 173.93693693 114.77577574 173.93693693 115 176 C114.34 176 113.68 176 113 176 C112.731875 176.763125 112.46375 177.52625 112.1875 178.3125 C111.00443012 180.98997393 110.02261899 181.9872958 108 184 C107.06624374 185.32830116 106.17049112 186.68404581 105.3125 188.0625 C104.87550781 188.75472656 104.43851563 189.44695312 103.98828125 190.16015625 C102.84226424 191.94557132 102.84226424 191.94557132 103 194 C102.38511719 194.24878906 101.77023438 194.49757812 101.13671875 194.75390625 C98.61537479 196.22430611 98.00954877 197.31376453 96.8125 199.9375 C96.48894531 200.62714844 96.16539063 201.31679687 95.83203125 202.02734375 C95.14553292 203.65495717 94.55860589 205.32418233 94 207 C93.0040458 208.0040295 92.00377592 209.00379023 91 210 C89.97497575 211.76303443 89.97497575 211.76303443 89.125 213.6875 C87.73919108 216.59716777 86.22349014 219.25583312 84.4375 221.9375 C82.18366017 225.44194607 80.95079882 228.86511413 79.75 232.8359375 C79.00820339 234.97632981 78.09941323 236.74813013 76.9375 238.6875 C75.1225433 241.79049049 74.10753285 244.60356594 73 248 C72.525625 248.721875 72.05125 249.44375 71.5625 250.1875 C68.53869513 255.63034876 67 261.79512463 67 268 C66.34 268 65.68 268 65 268 C64.72285156 269.14339844 64.44570312 270.28679687 64.16015625 271.46484375 C63.79445622 272.95577465 63.42856071 274.44665761 63.0625 275.9375 C62.88009766 276.69224609 62.69769531 277.44699219 62.50976562 278.22460938 C61.11328125 283.88671875 61.11328125 283.88671875 60 285 C59.76636119 286.84891946 59.58696365 288.70488031 59.4375 290.5625 C59.35371094 291.57441406 59.26992188 292.58632813 59.18359375 293.62890625 C59.12300781 294.41136719 59.06242187 295.19382812 59 296 C58.34 296 57.68 296 57 296 C54.44120737 304.39283981 53.3846683 312.60283789 52.64697266 321.31933594 C52.5394165 322.57278809 52.5394165 322.57278809 52.4296875 323.8515625 C52.34050049 324.97812256 52.34050049 324.97812256 52.24951172 326.12744141 C52 328 52 328 51 330 C49.45702535 342.26297469 49.7591997 354.78975006 49.75 367.125 C49.74866058 368.18537476 49.74732117 369.24574951 49.74594116 370.33825684 C49.75138562 390.23944158 50.15427739 409.98458833 55.3359375 429.32421875 C56.21765983 432.87704109 56.64996888 436.35967636 57 440 C57.66 440 58.32 440 59 440 C59.03738281 440.71285156 59.07476562 441.42570312 59.11328125 442.16015625 C59.52199151 448.11450374 60.47146737 452.53836953 63 458 C63.32299521 459.36797973 63.6123412 460.74416518 63.875 462.125 C64.90486478 467.18850185 66.79622824 471.80307059 68.7109375 476.58984375 C69.98689378 479.9653281 71.01111226 483.34335318 72 486.8125 C73.37299574 491.41672266 74.99855783 495.03078571 77.70703125 498.97265625 C81.07688073 504.25649879 83.29304977 510.28694165 85.6875 516.0625 C86.8131324 519.05122404 86.8131324 519.05122404 89 521 C89.67334758 522.61603419 90.34565408 524.23251299 91.01171875 525.8515625 C94.29596278 533.5106672 94.29596278 533.5106672 100 539 C101.04959797 540.63588566 102.04211745 542.30877595 103 544 C104.01825467 545.75150167 105.03906388 547.50152089 106.0625 549.25 C106.82240234 550.55710937 106.82240234 550.55710937 107.59765625 551.890625 C108.82873086 554.12155402 108.82873086 554.12155402 111 555 C111.309375 555.804375 111.61875 556.60875 111.9375 557.4375 C112.84547289 560.29863959 112.84547289 560.29863959 116 562 C117.1875 564.125 117.1875 564.125 118 566 C118.66 566 119.32 566 120 566 C120.495 567.485 120.495 567.485 121 569 C121.66 569 122.32 569 123 569 C123 569.99 123 570.98 123 572 C123.66 572 124.32 572 125 572 C125.226875 572.556875 125.45375 573.11375 125.6875 573.6875 C126.94113551 576.13504207 126.94113551 576.13504207 129.1875 578.1875 C131.54800535 580.54800535 133.48665928 582.85502298 135.5 585.5 C138.13823775 588.94216427 140.85334454 592.00318528 144 595 C144.65742188 595.68964844 145.31484375 596.37929688 145.9921875 597.08984375 C150.36373475 601.6353453 154.66868405 605.30812901 160 608.66796875 C162.6994587 610.46585042 164.80558101 612.62271276 167 615 C170.48327032 618.80207393 170.48327032 618.80207393 175 621 C175.99 622.485 175.99 622.485 177 624 C177.61875 624.144375 178.2375 624.28875 178.875 624.4375 C181.77441504 625.20499222 182.96525962 626.83808835 185 629 C188.04138324 631.64472055 188.04138324 631.64472055 192 632 C192.33 632.99 192.66 633.98 193 635 C196.51190809 636.22969878 196.51190809 636.22969878 200 637 C200 637.66 200 638.32 200 639 C201.093125 639.433125 202.18625 639.86625 203.3125 640.3125 C206.18456329 641.53928951 207.83603888 642.74587383 210 645 C215.32768641 648.35875883 220.99050019 650.88301385 226.71875 653.484375 C230.36225848 655.16732892 233.93156282 656.9660409 237.48828125 658.82421875 C240.20910155 660.09788424 242.98503122 661.15340977 245.8034668 662.19018555 C249.63600921 663.60316134 253.44133179 665.08664107 257.25 666.5625 C258.03890625 666.86607422 258.8278125 667.16964844 259.640625 667.48242188 C260.40375 667.77826172 261.166875 668.07410156 261.953125 668.37890625 C262.63536133 668.6426001 263.31759766 668.90629395 264.02050781 669.17797852 C266 670 266 670 267.96923828 671.04223633 C270.18123871 672.08547721 272.13313613 672.52383998 274.5390625 672.9453125 C280.22009801 674.01167592 285.77991173 675.4316387 291.375 676.875 C298.99367226 678.80038535 306.6156781 680.66221036 314.3125 682.25 C315.01358887 682.40065918 315.71467773 682.55131836 316.43701172 682.70654297 C332.25617065 685.86185647 348.24504781 686.32524938 364.32470703 686.26074219 C367.4966136 686.25001146 370.66795406 686.26071275 373.83984375 686.2734375 C389.12891778 686.28471963 404.14582531 685.8309944 419 682 C420.73923047 681.70471677 422.48412581 681.43952717 424.234375 681.21875 C425.13800781 681.09886719 426.04164063 680.97898437 426.97265625 680.85546875 C428.83959296 680.61652186 430.70678658 680.37957458 432.57421875 680.14453125 C433.47269531 680.02464844 434.37117188 679.90476562 435.296875 679.78125 C436.10479492 679.67876953 436.91271484 679.57628906 437.74511719 679.47070312 C440.10948956 678.97714423 441.87990287 678.13491353 444 677 C445.46832429 676.62175546 446.9490217 676.28892473 448.4375 676 C450.93945329 675.47926826 453.12117113 674.95153155 455.5 674 C457.73393643 673.10642543 459.64935673 672.64070887 461.99609375 672.18359375 C467.40383797 671.00761879 472.42429674 669.09024857 477.5625 667.0625 C479.35541868 666.36575655 481.1483867 665.66914007 482.94140625 664.97265625 C483.79492676 664.6389502 484.64844727 664.30524414 485.52783203 663.96142578 C489.99001546 662.22608326 494.45727363 660.51424212 499 659 C499 658.34 499 657.68 499 657 C499.70125 656.896875 500.4025 656.79375 501.125 656.6875 C504.41820953 655.89999337 506.99776946 654.56115988 510 653 C511.134375 652.54625 512.26875 652.0925 513.4375 651.625 C516.21245555 650.3592308 518.07246036 649.29528009 520.4375 647.5 C524.06352412 644.77224094 527.70765575 643.43078142 532 642 C532 641.34 532 640.68 532 640 C532.825 639.814375 533.65 639.62875 534.5 639.4375 C538.54678699 637.77542677 540.95512087 635.5674435 544.0703125 632.55859375 C546.09103479 630.9264719 547.46380629 630.41142698 550 630 C550 629.34 550 628.68 550 628 C552.29882518 626.85058741 554.58961391 625.73655549 556.9375 624.6875 C560.28399509 622.84351291 562.33917438 620.7257238 565 618 C566.25575087 617.08314424 567.52719185 616.18743868 568.8125 615.3125 C569.864375 614.549375 570.91625 613.78625 572 613 C572 612.34 572 611.68 572 611 C572.66 611 573.32 611 574 611 C574 610.34 574 609.68 574 609 C574.8353125 608.9071875 574.8353125 608.9071875 575.6875 608.8125 C578.97199875 607.65848693 580.65442984 605.52599863 583 603 C583.598125 602.443125 584.19625 601.88625 584.8125 601.3125 C586.22363777 600.04781729 586.22363777 600.04781729 586 598 C586.66 598 587.32 598 588 598 C588 597.34 588 596.68 588 596 C588.5775 595.7525 589.155 595.505 589.75 595.25 C592.32939979 593.81700012 594.06121592 592.21575324 596 590 C596 589.34 596 588.68 596 588 C596.58652344 587.92265625 597.17304687 587.8453125 597.77734375 587.765625 C600.75714854 586.73918961 601.6840948 585.26535901 603.5625 582.75 C606.83524384 578.48440129 610.1995019 574.33909231 613.6875 570.25 C615.02215567 568.68205958 616.35643872 567.11382942 617.68823242 565.54345703 C618.5932845 564.47855116 619.50257175 563.41723524 620.4152832 562.35888672 C623.6580868 558.6399314 623.6580868 558.6399314 625 554 C625.66 554 626.32 554 627 554 C628.42289422 551.98656174 628.42289422 551.98656174 629.8125 549.4375 C631.69408566 546.17361922 633.6084311 543.07167695 635.875 540.0625 C638.28504077 537.21046209 638.28504077 537.21046209 638 534 C638.66 534 639.32 534 640 534 C640.268125 533.21625 640.53625 532.4325 640.8125 531.625 C642 529 642 529 645 527 C645.73937002 525.38682906 646.46736101 523.76692142 647.12109375 522.1171875 C648.11564699 519.72141925 649.26023599 517.43632567 650.4375 515.125 C654.9181844 507.40026162 654.9181844 507.40026162 657 499 C657.66 499 658.32 499 659 499 C661.80181727 492.55471283 664.344166 486.19079334 666.25390625 479.42578125 C667.03166242 476.89705569 667.98132827 474.50346811 669 472.0625 C670.82925949 467.63597131 672.12341881 463.18497334 673.2890625 458.54296875 C674 456 674 456 675.046875 453.5390625 C676.11535575 450.69269984 676.40621848 448.21397768 676.625 445.1875 C676.69976563 444.21167969 676.77453125 443.23585938 676.8515625 442.23046875 C676.90054688 441.49441406 676.94953125 440.75835937 677 440 C677.66 440 678.32 440 679 440 C679.12117187 439.07058594 679.24234375 438.14117187 679.3671875 437.18359375 C679.53476562 435.94738281 679.70234375 434.71117187 679.875 433.4375 C680.03742187 432.21933594 680.19984375 431.00117188 680.3671875 429.74609375 C681 426 681 426 681.96875 422.71875 C686.89953574 404.93803779 686.29818831 385.60197119 686.3125 367.3125 C686.31590393 366.27997101 686.31930786 365.24744202 686.32281494 364.18362427 C686.34589884 351.93786052 685.85962917 340.10893224 684 328 C683.65306964 325.48463335 683.30800061 322.96900923 682.96484375 320.453125 C682.62384579 318.05187698 682.28141013 315.65083267 681.9375 313.25 C681.76412109 312.02023437 681.59074219 310.79046875 681.41210938 309.5234375 C681.24388672 308.34523438 681.07566406 307.16703125 680.90234375 305.953125 C680.75273193 304.90286133 680.60312012 303.85259766 680.44897461 302.77050781 C680.07524705 300.46433037 679.61363684 298.25191547 679 296 C678.34 296 677.68 296 677 296 C676.96261719 295.29875 676.92523437 294.5975 676.88671875 293.875 C676.51993101 288.58174954 675.91856283 284.05387933 673.86328125 279.1640625 C672.85899859 276.64653946 672.12740978 274.1042311 671.375 271.5 C666.35570717 255.04361626 660.06186257 239.19151833 652 224 C651.32724489 222.63518808 650.65672807 221.26927091 649.98828125 219.90234375 C648.36211179 216.63268422 646.53418627 213.59990996 644.5 210.5625 C642.33342288 207.23460082 640.48967639 204.05424385 639 200.375 C637.19312562 196.0103424 634.59094303 192.65729908 631.609375 189.01953125 C630 187 630 187 628.1875 183.9375 C627.795625 183.298125 627.40375 182.65875 627 182 C626.34 182 625.68 182 625 182 C624.71125 181.030625 624.4225 180.06125 624.125 179.0625 C623.35785318 175.89335797 623.35785318 175.89335797 621 175 C620.54625 174.21625 620.0925 173.4325 619.625 172.625 C617.97273836 169.95596197 616.48664182 168.82353733 614 167 C613.67 166.01 613.34 165.02 613 164 C612.34 164 611.68 164 611 164 C611 163.34 611 162.68 611 162 C610.34 162 609.68 162 609 162 C608.731875 161.236875 608.46375 160.47375 608.1875 159.6875 C607.04865495 157.11011382 606.18583329 155.73045136 604 154 C603.34 154 602.68 154 602 154 C601.773125 153.46375 601.54625 152.9275 601.3125 152.375 C598.97768371 148.15009434 595.67624683 144.15106871 592 141 C591.34 141 590.68 141 590 141 C590 140.34 590 139.68 590 139 C588.01449788 137.25821064 588.01449788 137.25821064 585.5625 135.5 C581.10297767 132.20595533 581.10297767 132.20595533 580 130 C579.34 130 578.68 130 578 130 C578 129.34 578 128.68 578 128 C576.68 127.67 575.36 127.34 574 127 C574 126.34 574 125.68 574 125 C573.34 125 572.68 125 572 125 C572 124.34 572 123.68 572 123 C571.01 123 570.02 123 569 123 C568.67 122.01 568.34 121.02 568 120 C566.47093954 118.66336397 566.47093954 118.66336397 564.625 117.5 C562.69559881 116.21920602 561.0389174 115.03949113 559.41015625 113.38671875 C557.69434554 111.69942567 556.33823258 111.40314355 554 111 C554 110.34 554 109.68 554 109 C553.38511719 108.67386719 552.77023437 108.34773438 552.13671875 108.01171875 C550.92435547 107.35623047 550.92435547 107.35623047 549.6875 106.6875 C548.88699219 106.25824219 548.08648438 105.82898438 547.26171875 105.38671875 C545.15725211 104.09641537 543.72928472 102.72928472 542 101 C541.34 101 540.68 101 540 101 C540 100.34 540 99.68 540 99 C538.71086513 98.32845067 537.41859796 97.66291141 536.125 97 C535.40570312 96.62875 534.68640625 96.2575 533.9453125 95.875 C532.05151023 94.86326254 532.05151023 94.86326254 530 95 C530 94.34 530 93.68 530 93 C529.29617188 92.64808594 528.59234375 92.29617187 527.8671875 91.93359375 C526.87976563 91.43988281 525.89234375 90.94617188 524.875 90.4375 C523.78832031 89.89609375 522.70164062 89.3546875 521.58203125 88.796875 C519.13332618 87.57353965 516.69501456 86.33181371 514.26171875 85.078125 C513.64506348 84.76302979 513.0284082 84.44793457 512.39306641 84.12329102 C510.63641477 83.22528545 508.88259495 82.32174688 507.12890625 81.41796875 C504.3479771 80.15769749 502.00504048 79.43250115 499 79 C499 78.34 499 77.68 499 77 C498.28972656 76.80664062 497.57945312 76.61328125 496.84765625 76.4140625 C495.92855469 76.15367188 495.00945312 75.89328125 494.0625 75.625 C493.14597656 75.36976562 492.22945313 75.11453125 491.28515625 74.8515625 C489 74 489 74 488 72 C485.8782218 71.29765895 483.72532241 70.68840476 481.5625 70.125 C477.27930228 69.00600872 473.26257242 67.74439438 469.16796875 66.05859375 C464.11425183 63.99118593 459.00593796 62.40358874 453.75 60.9375 C452.83541016 60.68000977 451.92082031 60.42251953 450.97851562 60.15722656 C440.44690044 57.23342488 429.90354707 55.03898204 419.08203125 53.46875 C416.2020119 53.03072424 413.35786499 52.49997415 410.5 51.9375 C398.66332102 49.7745954 386.6760186 49.82879083 374.6875 49.875 C373.89698242 49.87754791 373.10646484 49.88009583 372.29199219 49.88272095 C367.56002814 49.90052775 362.82838675 49.93413787 358.09661865 49.98040771 C356.21369497 49.99800308 354.33072377 50.01032542 352.44775391 50.02197266 Z " fill="#FED3D4" transform="translate(0,0)"/>
<path d="M0 0 C0 0.66 0 1.32 0 2 C0.8353125 2.05607422 0.8353125 2.05607422 1.6875 2.11328125 C7.30933419 2.59759467 11.77961689 3.87645433 17 6 C18.3281172 6.35354433 19.66047939 6.69247209 21 7 C21 7.66 21 8.32 21 9 C21.72445312 9.10957031 22.44890625 9.21914062 23.1953125 9.33203125 C30.2256526 11.00638802 36.20105801 15.93128182 41.48046875 20.69140625 C43.49187678 22.42359569 45.70715378 23.67256272 48 25 C50.8125 27.0625 50.8125 27.0625 53 29 C53 29.66 53 30.32 53 31 C53.53625 31.20625 54.0725 31.4125 54.625 31.625 C57.91978009 33.53250426 60.59363628 36.04819384 63 39 C63 39.66 63 40.32 63 41 C63.66 41 64.32 41 65 41 C65.99 43.97 66.98 46.94 68 50 C68.66 50 69.32 50 70 50 C70.81487171 52.24916619 71.62696918 54.49926978 72.4375 56.75 C72.66759766 57.38421875 72.89769531 58.0184375 73.13476562 58.671875 C75.41241041 65.00966917 76.18204035 70.06739092 76.1875 76.75 C76.19974609 77.5234375 76.21199219 78.296875 76.22460938 79.09375 C76.25187535 89.92743082 72.75751549 100.45373041 66 109 C64.03081154 110.37843192 62.03335209 111.71810412 60 113 C59.34 113.99 58.68 114.98 58 116 C54.375 116.6875 54.375 116.6875 51 117 C51 117.66 51 118.32 51 119 C48.1191123 119.9602959 46.28228827 120.12875585 43.2890625 120.1328125 C42.37382812 120.13410156 41.45859375 120.13539063 40.515625 120.13671875 C39.56171875 120.13285156 38.6078125 120.12898438 37.625 120.125 C36.20574219 120.13080078 36.20574219 120.13080078 34.7578125 120.13671875 C33.84 120.13542969 32.9221875 120.13414062 31.9765625 120.1328125 C31.14205566 120.13168457 30.30754883 120.13055664 29.44775391 120.12939453 C26.88340104 119.99383628 24.5026396 119.56215884 22 119 C22 118.34 22 117.68 22 117 C20.90171875 116.82210937 20.90171875 116.82210937 19.78125 116.640625 C13.31778613 115.15184961 7.01602108 111.24313864 3 106 C-2 95.66759003 -2 95.66759003 -2 92 C-2.66 92 -3.32 92 -4 92 C-4.08745946 88.6043303 -4.14054444 85.20895227 -4.1875 81.8125 C-4.21263672 80.85279297 -4.23777344 79.89308594 -4.26367188 78.90429688 C-4.31806034 73.66487521 -4.25048053 70.32345468 -1 66 C-0.3213916 64.32541122 0.32529396 62.63748844 0.9375 60.9375 C2.42370301 57.12875159 3.71247986 54.56837511 7 52 C7.70125 51.4225 8.4025 50.845 9.125 50.25 C11 49 11 49 13 49 C13.33 48.01 13.66 47.02 14 46 C21.75984677 42.45230247 29.55981479 41.39108884 38 42 C37.505 41.38125 37.01 40.7625 36.5 40.125 C35 38 35 38 35 36 C34.4225 35.9175 33.845 35.835 33.25 35.75 C30.3460664 34.78202213 28.96259396 33.31305716 27 31 C27 30.34 27 29.68 27 29 C24.36 28.34 21.72 27.68 19 27 C19 26.34 19 25.68 19 25 C18.319375 24.9175 17.63875 24.835 16.9375 24.75 C13.97178791 23.99279691 11.88142149 22.73920255 9.27734375 21.18359375 C-9.5789424 11.38349992 -35.51705743 10.77358288 -55.63671875 16.87109375 C-56.74660156 17.24363281 -57.85648438 17.61617187 -59 18 C-60.05832031 18.30035156 -61.11664063 18.60070312 -62.20703125 18.91015625 C-68.95454774 20.91102443 -74.63856047 23.8844551 -80.6015625 27.609375 C-83 29 -83 29 -85 29 C-85.37125 29.8971875 -85.37125 29.8971875 -85.75 30.8125 C-87.18072525 33.31626919 -88.5691582 34.48072388 -91 36 C-91.66 36 -92.32 36 -93 36 C-93.66 37.32 -94.32 38.64 -95 40 C-95.66 40 -96.32 40 -97 40 C-97.33 40.99 -97.66 41.98 -98 43 C-100.47091381 45.6081868 -103.05721389 48.05322222 -105.6875 50.5 C-107.97217828 52.96992246 -109.00099201 54.82133822 -110 58 C-110.66 58 -111.32 58 -112 58 C-112.66 59.98 -113.32 61.96 -114 64 C-114.66 64 -115.32 64 -116 64 C-116.37125 65.2375 -116.37125 65.2375 -116.75 66.5 C-118.18704811 70.52373471 -120.02354515 74.21979024 -122 78 C-122.66 78 -123.32 78 -124 78 C-124.37125 79.175625 -124.37125 79.175625 -124.75 80.375 C-126.05652221 84.1639144 -127.55046449 87.8394114 -129.09765625 91.53515625 C-130.00498504 94.01361713 -130.55095389 96.40293953 -131 99 C-131.66 99 -132.32 99 -133 99 C-133.09796875 99.60585937 -133.1959375 100.21171875 -133.296875 100.8359375 C-134.11012431 105.39293797 -135.11100393 109.55067584 -136.9375 113.8125 C-139.12662068 119.05190281 -140.38939724 124.28948831 -141.54199219 129.84082031 C-142.0797649 132.37603452 -142.65397006 134.90211328 -143.2265625 137.4296875 C-143.67277395 139.45292695 -144.11807836 141.47636665 -144.5625 143.5 C-144.77253662 144.4173291 -144.98257324 145.3346582 -145.19897461 146.27978516 C-149.21263049 164.97843819 -149.30086979 183.96433479 -149.1875 203 C-149.18062499 205.3699534 -149.1741187 207.73990789 -149.16796875 210.10986328 C-149.09636158 229.41565135 -148.69737974 248.70706379 -148 268 C-147.34 268 -146.68 268 -146 268 C-145.80664062 269.0621875 -145.61328125 270.124375 -145.4140625 271.21875 C-145.15162556 272.64594083 -144.88856386 274.07301686 -144.625 275.5 C-144.42028076 276.61048706 -144.42028076 276.61048706 -144.21142578 277.7434082 C-143.55142683 281.2676782 -142.86279582 284.73769795 -141.875 288.1875 C-140.60084866 293.73915939 -140.32881135 299.32367775 -140 305 C-139.34 305 -138.68 305 -138 305 C-135.06497036 313.92831536 -132.32558317 322.66156333 -131 332 C-130.01 332.33 -129.02 332.66 -128 333 C-128 334.65 -128 336.3 -128 338 C-127.34 338 -126.68 338 -126 338 C-125.62875 339.11375 -125.2575 340.2275 -124.875 341.375 C-123.20947336 345.88881857 -120.80823771 349.76922769 -118.20703125 353.80078125 C-117 356 -117 356 -117 359 C-116.34 359 -115.68 359 -115 359 C-111 365.75 -111 365.75 -111 368 C-110.34 368 -109.68 368 -109 368 C-109 368.66 -109 369.32 -109 370 C-108.34 370 -107.68 370 -107 370 C-105.7384644 371.49844369 -104.54058457 373.05076426 -103.375 374.625 C-100.11570891 378.8393947 -96.90029603 381.91211186 -92.46875 384.84375 C-91.9840625 385.2253125 -91.499375 385.606875 -91 386 C-91 386.66 -91 387.32 -91 388 C-89.9171875 388.40605469 -89.9171875 388.40605469 -88.8125 388.8203125 C-86.04261359 389.98212597 -83.58644182 391.35309978 -81 392.875 C-73.47897609 397.04315552 -65.43100273 399.42890909 -57 401 C-57 401.66 -57 402.32 -57 403 C-52.82317579 403.05022543 -48.64652132 403.0861004 -44.46948242 403.10986328 C-43.05473765 403.11979131 -41.64001266 403.13333825 -40.2253418 403.15087891 C-28.0880781 403.29737055 -16.56471279 402.17024918 -4.8125 399 C-3.56082031 398.67 -2.30914062 398.34 -1.01953125 398 C2.07263985 397.22665982 2.07263985 397.22665982 4 395 C6.17803618 394.18270155 8.38375413 393.54132942 10.61328125 392.87890625 C22.96302445 388.33112847 42.99432319 374.01135362 49 362 C49.66 362 50.32 362 51 362 C51.268125 361.195625 51.53625 360.39125 51.8125 359.5625 C52.204375 358.716875 52.59625 357.87125 53 357 C53.99 356.67 54.98 356.34 56 356 C57.16666667 354.08333333 57.16666667 354.08333333 58 352 C58.33 351.34 58.66 350.68 59 350 C59.66 350 60.32 350 61 350 C61.26167969 349.28199219 61.52335937 348.56398438 61.79296875 347.82421875 C63.04431213 344.89631821 64.54870964 342.46014097 66.3125 339.8125 C69.18417137 335.38857383 71.64349086 330.91835889 73.93359375 326.171875 C75.15180953 323.69082015 76.52140032 321.33463107 78 319 C79.60597325 319.45196245 81.20972508 319.91182327 82.8125 320.375 C83.70582031 320.63023437 84.59914063 320.88546875 85.51953125 321.1484375 C88 322 88 322 91 324 C90.34309381 327.78239671 89.279869 331.21841526 87.9375 334.8125 C87.57527344 335.78832031 87.21304687 336.76414062 86.83984375 337.76953125 C86.42412109 338.87361328 86.42412109 338.87361328 86 340 C85.34 340 84.68 340 84 340 C83.84144531 340.61746094 83.68289063 341.23492187 83.51953125 341.87109375 C81.25166761 350.10306289 77.90393028 357.68890212 72 364 C71.34 364 70.68 364 70 364 C69.67 365.32 69.34 366.64 69 368 C68.34 368 67.68 368 67 368 C66.938125 368.556875 66.87625 369.11375 66.8125 369.6875 C65.66812738 372.94456054 63.44500992 374.57951024 61 377 C59.49966844 378.81605351 58.02038946 380.64970179 56.5625 382.5 C53.2868513 386.55504598 50.13282939 389.85117761 46 393 C45.195625 393.86625 45.195625 393.86625 44.375 394.75 C42.67357031 396.29675426 41.23865805 396.61402447 39 397 C39 397.66 39 398.32 39 399 C38.34 399 37.68 399 37 399 C37 399.66 37 400.32 37 401 C36.34 401 35.68 401 35 401 C35 401.66 35 402.32 35 403 C24.77724148 408.96987965 14.02755944 413.72876219 3 418 C2.22785156 418.33515625 1.45570313 418.6703125 0.66015625 419.015625 C-2.54681226 420.20234463 -5.70538362 420.85046329 -9.0625 421.5 C-10.27035156 421.7371875 -11.47820312 421.974375 -12.72265625 422.21875 C-13.38942383 422.34024414 -14.05619141 422.46173828 -14.74316406 422.58691406 C-16.37817777 422.88618312 -18.01002882 423.20290257 -19.63964844 423.53027344 C-27.82242756 425.07020604 -35.81660324 425.31761195 -44.125 425.25 C-44.81609863 425.24656586 -45.50719727 425.24313171 -46.21923828 425.23959351 C-83.29723382 425.02534666 -83.29723382 425.02534666 -99.7421875 419.0859375 C-102.70445284 418.09851572 -105.0322557 417.6917787 -108.125 417.5625 C-113.87980569 417.25910038 -118.74681585 414.7509142 -123.8984375 412.375 C-126.31573461 411.30335191 -128.42378355 410.50762886 -131 410 C-131 409.34 -131 408.68 -131 408 C-131.85335937 407.896875 -132.70671875 407.79375 -133.5859375 407.6875 C-144.7829069 405.43273271 -154.2406696 397.89619365 -163 391 C-164.41003141 390.01130225 -165.82550522 389.03024295 -167.25 388.0625 C-168.1575 387.381875 -169.065 386.70125 -170 386 C-170 385.34 -170 384.68 -170 384 C-170.66 384 -171.32 384 -172 384 C-173.625 382.6875 -173.625 382.6875 -175 381 C-175 380.01 -175 379.02 -175 378 C-175.66 378 -176.32 378 -177 378 C-177 377.34 -177 376.68 -177 376 C-177.57363281 375.77054688 -178.14726562 375.54109375 -178.73828125 375.3046875 C-181.589972 373.65967073 -183.1491943 371.70251978 -185.1875 369.125 C-185.88230469 368.26132812 -186.57710937 367.39765625 -187.29296875 366.5078125 C-188.85244234 364.21677807 -189.5789823 362.70205392 -190 360 C-190.66 360 -191.32 360 -192 360 C-193.62596788 357.82209807 -195.10598039 355.66217298 -196.5625 353.375 C-196.97435547 352.75753906 -197.38621094 352.14007813 -197.81054688 351.50390625 C-200.26931955 347.68093727 -201.59426553 344.62679654 -202 340 C-202.66 340 -203.32 340 -204 340 C-204.84212256 338.08717875 -205.67338864 336.16957527 -206.5 334.25 C-206.9640625 333.18265625 -207.428125 332.1153125 -207.90625 331.015625 C-209 328 -209 328 -209 324 C-209.66 324 -210.32 324 -211 324 C-211.66 320.37 -212.32 316.74 -213 313 C-213.66 313 -214.32 313 -215 313 C-217.02837523 306.7661268 -218.53491838 300.62809823 -219.5703125 294.15234375 C-219.78748286 292.02752028 -219.78748286 292.02752028 -221 291 C-221.52476858 288.10384057 -221.98827176 285.22038502 -222.41015625 282.30859375 C-222.54232544 281.39699493 -222.67449463 280.48539612 -222.81066895 279.5461731 C-227.82878862 244.13217172 -230.50128096 207.42364625 -224 172 C-223.75535481 170.49649159 -223.51309734 168.99259237 -223.2734375 167.48828125 C-219.64694148 145.64694148 -219.64694148 145.64694148 -216 142 C-215.69936708 140.52660102 -215.43509133 139.04573405 -215.1875 137.5625 C-214.31321798 133.01751923 -212.94003517 129.02363308 -211.13671875 124.7734375 C-209.80020091 121.51251769 -208.65372044 118.2048147 -207.5 114.875 C-205.66317203 109.66406035 -203.53623662 104.89756037 -201 100 C-200.29094062 98.01463373 -199.60578253 96.01927511 -199 94 C-198.34 94 -197.68 94 -197 94 C-196.82984375 93.36191406 -196.6596875 92.72382813 -196.484375 92.06640625 C-196.24203125 91.24011719 -195.9996875 90.41382813 -195.75 89.5625 C-195.40195313 88.32693359 -195.40195313 88.32693359 -195.046875 87.06640625 C-194.70140625 86.38449219 -194.3559375 85.70257813 -194 85 C-192.02 84.505 -192.02 84.505 -190 84 C-189.34 81.36 -188.68 78.72 -188 76 C-187.34 76 -186.68 76 -186 76 C-185.7215625 74.7625 -185.7215625 74.7625 -185.4375 73.5 C-183.80168504 69.51714618 -181.70408357 67.10129887 -178.8125 63.96875 C-177.18351677 62.19933718 -175.68035485 60.38384065 -174.1875 58.5 C-173.465625 57.675 -172.74375 56.85 -172 56 C-171.34 56 -170.68 56 -170 56 C-169.938125 55.443125 -169.87625 54.88625 -169.8125 54.3125 C-168.25699125 49.88528278 -164.28819029 47.21125831 -160.75 44.3125 C-157.98257806 42.2957678 -157.98257806 42.2957678 -157 40 C-156.34 40 -155.68 40 -155 40 C-154.34 38.68 -153.68 37.36 -153 36 C-152.34 36 -151.68 36 -151 36 C-151 35.34 -151 34.68 -151 34 C-148.91796875 32.30859375 -148.91796875 32.30859375 -146.1875 30.4375 C-145.29417969 29.81746094 -144.40085937 29.19742188 -143.48046875 28.55859375 C-141 27 -141 27 -138 26 C-137.278125 25.195625 -136.55625 24.39125 -135.8125 23.5625 C-132.211357 20.2814586 -129.73057382 19.88197139 -125 19 C-125 18.34 -125 17.68 -125 17 C-122.09399739 15.74335022 -120.20395416 15 -117 15 C-117 14.34 -117 13.68 -117 13 C-114.89828133 12.1605118 -112.79353375 11.32860344 -110.6875 10.5 C-109.51574219 10.0359375 -108.34398437 9.571875 -107.13671875 9.09375 C-104 8 -104 8 -101 8 C-101 7.34 -101 6.68 -101 6 C-69.55016819 -2.46299822 -32.18654241 -9.1093988 0 0 Z " fill="#FED3D4" transform="translate(429,156)"/>
<path d="M0 0 C0.33 0 0.66 0 1 0 C1.22704682 1.49728171 1.43048275 2.99814587 1.625 4.5 C1.74101562 5.3353125 1.85703125 6.170625 1.9765625 7.03125 C2 10 2 10 1.02734375 13.5078125 C-0.29139244 18.60799984 -0.35127378 23.59883922 -0.4140625 28.84375 C-0.43342865 29.85344849 -0.4527948 30.86314697 -0.4727478 31.90344238 C-0.53213227 35.10221121 -0.57876357 38.30101684 -0.625 41.5 C-0.66321767 43.67970248 -0.70227156 45.85939046 -0.7421875 48.0390625 C-0.83779955 53.35924558 -0.92296524 58.67951722 -1 64 C-1.33 64 -1.66 64 -2 64 C-2.05135686 57.45706597 -2.08600428 50.91418523 -2.10986328 44.37109375 C-2.11982589 42.15232399 -2.13340085 39.93356703 -2.15087891 37.71484375 C-2.24862941 24.9727785 -2.08123757 12.59535884 0 0 Z " fill="#FAE5E7" transform="translate(204,336)"/>
<path d="M0 0 C0.99 0.495 0.99 0.495 2 1 C1.01 1.495 1.01 1.495 0 2 C0 1.34 0 0.68 0 0 Z M-1 2 C-0.67 2.66 -0.34 3.32 0 4 C-8.27906977 13.58139535 -8.27906977 13.58139535 -11 16 C-11.66 16 -12.32 16 -13 16 C-12.29404824 9.64643412 -5.63284114 5.7709172 -1 2 Z M-15 16 C-14.34 16 -13.68 16 -13 16 C-13 16.66 -13 17.32 -13 18 C-13.99 18.33 -14.98 18.66 -16 19 C-15.67 18.01 -15.34 17.02 -15 16 Z " fill="#F6D8D9" transform="translate(272,196)"/>
<path d="M0 0 C0.33 0.66 0.66 1.32 1 2 C-0.7980055 5.59601099 -2.970448 8.36135793 -6 11 C-6.66 11 -7.32 11 -8 11 C-8.2475 11.5775 -8.495 12.155 -8.75 12.75 C-10.16683317 15.3002997 -11.87627537 17.01785701 -14 19 C-14.66 18.67 -15.32 18.34 -16 18 C-14.88200014 16.66079162 -13.75538103 15.32877444 -12.625 14 C-11.68527344 12.88625 -11.68527344 12.88625 -10.7265625 11.75 C-9.87191406 10.88375 -9.87191406 10.88375 -9 10 C-8.34 10 -7.68 10 -7 10 C-6.731875 9.195625 -6.46375 8.39125 -6.1875 7.5625 C-5.795625 6.716875 -5.40375 5.87125 -5 5 C-4.01 4.67 -3.02 4.34 -2 4 C-0.79117904 1.99983534 -0.79117904 1.99983534 0 0 Z " fill="#F9E0DE" transform="translate(487,508)"/>
<path d="M0 0 C0 3 0 3 -1.46875 4.80932617 C-2.1390625 5.46392822 -2.809375 6.11853027 -3.5 6.79296875 C-4.221875 7.50517578 -4.94375 8.21738281 -5.6875 8.95117188 C-6.450625 9.68916016 -7.21375 10.42714844 -8 11.1875 C-8.763125 11.93708984 -9.52625 12.68667969 -10.3125 13.45898438 C-12.20180839 15.31286823 -14.09775206 17.15941069 -16 19 C-16 14.82289492 -13.77017068 12.86444351 -11 10 C-9.02043058 8.30911778 -7.02054804 6.64169528 -5 5 C-3.28997625 3.37055328 -1.64631285 1.69473381 0 0 Z " fill="#FEF1F1" transform="translate(340,189)"/>
<path d="M0 0 C0 4.33021472 -2.22652099 5.94386639 -5.04296875 9.05859375 C-7.51834304 11.51420457 -9.99767954 13.24254412 -13 15 C-13.66 14.67 -14.32 14.34 -15 14 C-14.50628906 13.59007812 -14.01257813 13.18015625 -13.50390625 12.7578125 C-12.86324219 12.21898437 -12.22257813 11.68015625 -11.5625 11.125 C-10.92441406 10.59132813 -10.28632812 10.05765625 -9.62890625 9.5078125 C-7.89194996 8.0777243 -7.89194996 8.0777243 -7 6 C-6.34 6 -5.68 6 -5 6 C-5 5.34 -5 4.68 -5 4 C-3.37373596 2.61767557 -1.7074998 1.28062485 0 0 Z " fill="#F8DEDE" transform="translate(593,592)"/>
<path d="M0 0 C0.59375 1.84765625 0.59375 1.84765625 1 4 C-1.78993766 8.5336487 -5.66316727 11.08097797 -10 14 C-10.66 13.67 -11.32 13.34 -12 13 C-10 10 -10 10 -7 9 C-5.1070193 6.91255028 -5.1070193 6.91255028 -3.3125 4.4375 C-2.68988281 3.61121094 -2.06726563 2.78492188 -1.42578125 1.93359375 C-0.95527344 1.29550781 -0.48476563 0.65742187 0 0 Z " fill="#F7DCDC" transform="translate(606,578)"/>
<path d="M0 0 C0 4.46142063 -2.46995766 7.3369105 -5.4375 10.5625 C-5.953125 11.036875 -6.46875 11.51125 -7 12 C-7.886875 12.886875 -8.77375 13.77375 -9.6875 14.6875 C-10.450625 15.450625 -11.21375 16.21375 -12 17 C-10.36283575 9.72371445 -5.13658655 5.07375369 0 0 Z " fill="#F8DEDF" transform="translate(255,215)"/>
<path d="M0 0 C6.7281627 -0.22262303 12.53991163 0.04978464 19 2 C19 2.33 19 2.66 19 3 C6.5333109 3.20289367 6.5333109 3.20289367 1 2 C0.67 1.34 0.34 0.68 0 0 Z " fill="#F8E0E1" transform="translate(410,154)"/>
<path d="M0 0 C0 4.79470293 -2.30005543 8.98703447 -5.37890625 12.6328125 C-6.54604972 13.79663077 -7.76808967 14.90496859 -9 16 C-8.56327054 11.05039941 -6.20117399 8.65848456 -3 5 C-1.96344932 3.35581617 -0.94815429 1.69669715 0 0 Z " fill="#FBE6E7" transform="translate(509,504)"/>
<path d="M0 0 C7.425 0.99 7.425 0.99 15 2 C15 2.99 15 3.98 15 5 C9.54520815 4.43179252 5.08940744 3.05362055 0 1 C0 0.67 0 0.34 0 0 Z " fill="#F6DFDF" transform="translate(472,67)"/>
<path d="M0 0 C0.99 0.495 0.99 0.495 2 1 C1.01 1.495 1.01 1.495 0 2 C0 1.34 0 0.68 0 0 Z M-2 2 C-1.34 2.33 -0.68 2.66 0 3 C-0.721875 3.556875 -1.44375 4.11375 -2.1875 4.6875 C-5.07086423 6.9729976 -5.07086423 6.9729976 -7.6875 9.75 C-10 12 -10 12 -12 12 C-10.5741914 8.54804233 -8.90253666 6.8985744 -5.875 4.75 C-5.15054688 4.22921875 -4.42609375 3.7084375 -3.6796875 3.171875 C-3.12539063 2.78515625 -2.57109375 2.3984375 -2 2 Z " fill="#F7DCDE" transform="translate(572,611)"/>
<path d="M0 0 C0.66 0.33 1.32 0.66 2 1 C0.72232235 5.99455809 -1.12911784 8.61297811 -5 12 C-5.99 12.495 -5.99 12.495 -7 13 C-5.54331217 10.03216871 -3.98767914 7.13584687 -2.375 4.25 C-1.92898438 3.45078125 -1.48296875 2.6515625 -1.0234375 1.828125 C-0.68570313 1.22484375 -0.34796875 0.6215625 0 0 Z " fill="#F8DFE0" transform="translate(638,534)"/>
<path d="M0 0 C0.9659657 2.60810739 1.02770914 3.89420147 0.3125 6.625 C-1 9 -1 9 -3.0625 10 C-4.0215625 10.495 -4.0215625 10.495 -5 11 C-5.81171228 13.55519921 -5.81171228 13.55519921 -6 16 C-7 13 -7 13 -6 10 C-5.34 10 -4.68 10 -4 10 C-3.79503906 9.36191406 -3.59007812 8.72382813 -3.37890625 8.06640625 C-3.10949219 7.24011719 -2.84007812 6.41382813 -2.5625 5.5625 C-2.16224609 4.32693359 -2.16224609 4.32693359 -1.75390625 3.06640625 C-1 1 -1 1 0 0 Z " fill="#FAE3E2" transform="translate(236,240)"/>
<path d="M0 0 C-0.3315629 3.0945871 -1.02882594 4.02804686 -3.3125 6.25 C-6 8 -6 8 -10 8 C-10 7.34 -10 6.68 -10 6 C-8.3203125 4.4921875 -8.3203125 4.4921875 -6.125 2.875 C-5.40570313 2.33617187 -4.68640625 1.79734375 -3.9453125 1.2421875 C-2 0 -2 0 0 0 Z " fill="#F6DDDD" transform="translate(288,184)"/>
<path d="M0 0 C0.99 0.33 1.98 0.66 3 1 C2.34 1 1.68 1 1 1 C1 1.66 1 2.32 1 3 C-0.4160599 3.79275148 -1.83287553 4.58415312 -3.25 5.375 C-4.03890625 5.81585938 -4.8278125 6.25671875 -5.640625 6.7109375 C-7.73914197 7.85747823 -9.8536077 8.94649552 -12 10 C-12 9.34 -12 8.68 -12 8 C-9.48046875 6.01953125 -9.48046875 6.01953125 -6.1875 3.8125 C-5.10855469 3.07644531 -4.02960938 2.34039062 -2.91796875 1.58203125 C-1.95503906 1.05996094 -0.99210938 0.53789063 0 0 Z " fill="#F4D7D7" transform="translate(198,96)"/>
<path d="M0 0 C5.50808397 0.59015185 10.64878069 1.56663769 16 3 C16 3.33 16 3.66 16 4 C13.70800823 3.85936865 11.41640814 3.71234057 9.125 3.5625 C7.84882813 3.48128906 6.57265625 3.40007813 5.2578125 3.31640625 C2 3 2 3 0 2 C0 1.34 0 0.68 0 0 Z " fill="#F9E1E3" transform="translate(280,674)"/>
<path d="M0 0 C0.33 0 0.66 0 1 0 C1.99989549 6.59390542 2.00925164 11.61767125 0 18 C-0.33 18 -0.66 18 -1 18 C-1.11269443 11.8894576 -0.89604368 6.04829486 0 0 Z " fill="#F8DDDD" transform="translate(204,336)"/>
<path d="M0 0 C0.66 0.33 1.32 0.66 2 1 C-4.14285714 6.57142857 -4.14285714 6.57142857 -9 7 C-6.25604436 4.05278838 -3.61662784 1.80831392 0 0 Z " fill="#F8DDDF" transform="translate(460,536)"/>
<path d="M0 0 C0.5625 1.9375 0.5625 1.9375 1 4 C0.67 4.33 0.34 4.66 0 5 C-0.39454223 6.84599688 -0.74176866 8.70225822 -1.0625 10.5625 C-1.23910156 11.57441406 -1.41570313 12.58632813 -1.59765625 13.62890625 C-1.73042969 14.41136719 -1.86320312 15.19382812 -2 16 C-2.33 16 -2.66 16 -3 16 C-2.67 11.38 -2.34 6.76 -2 2 C-1.34 2 -0.68 2 0 2 C0 1.34 0 0.68 0 0 Z " fill="#F9E0E1" transform="translate(61,280)"/>
<path d="M0 0 C0.99 0 1.98 0 3 0 C3.33 0.66 3.66 1.32 4 2 C4.639375 2.28875 5.27875 2.5775 5.9375 2.875 C8.42001234 4.22909764 8.96871397 5.42178493 10 8 C6.05205855 6.32971708 3.18203882 3.8204435 0 1 C0 0.67 0 0.34 0 0 Z " fill="#F7DDDE" transform="translate(264,544)"/>
<path d="M0 0 C1 2 1 2 0.3125 5.5 C-1 9 -1 9 -5 11 C-3.35 7.37 -1.7 3.74 0 0 Z " fill="#F7DBDA" transform="translate(503,482)"/>
<path d="M0 0 C0.66 0 1.32 0 2 0 C0.98823563 3.40320742 0.35156418 4.75725331 -2.625 6.8125 C-3.40875 7.204375 -4.1925 7.59625 -5 8 C-3.63055898 5.05043472 -2.12169591 2.47531189 0 0 Z " fill="#F8DDDE" transform="translate(621,560)"/>
<path d="M0 0 C1.36125 0.12375 1.36125 0.12375 2.75 0.25 C-0.31117568 2.87386487 -0.98173127 3.25 -5.25 3.25 C-5.25 3.91 -5.25 4.57 -5.25 5.25 C-5.91 4.92 -6.57 4.59 -7.25 4.25 C-4.83923194 1.28290085 -3.90322061 0.30024774 0 0 Z " fill="#F7DCDD" transform="translate(223.25,82.75)"/>
<path d="M0 0 C0 3 0 3 -2 6 C-2.66 6 -3.32 6 -4 6 C-4.33 6.66 -4.66 7.32 -5 8 C-5.33 7.01 -5.66 6.02 -6 5 C-4.02 3.35 -2.04 1.7 0 0 Z " fill="#F8DFDF" transform="translate(119,168)"/>
<path d="M0 0 C0.87491004 2.4497481 1.12900603 3.63448293 0.25 6.125 C-1 8 -1 8 -4 10 C-2.66666667 6.66666667 -1.33333333 3.33333333 0 0 Z " fill="#F6DDDE" transform="translate(651,512)"/>
<path d="M0 0 C0.99 0.495 0.99 0.495 2 1 C2 1.66 2 2.32 2 3 C2.639375 3.28875 3.27875 3.5775 3.9375 3.875 C6 5 6 5 7 7 C4.61435923 6.42415568 2.33317216 5.77772405 0 5 C0 3.35 0 1.7 0 0 Z " fill="#F8DBDD" transform="translate(480,184)"/>
<path d="M0 0 C1.13643966 3.40931897 0.86747764 4.00335456 -0.4375 7.1875 C-0.86869141 8.26064453 -0.86869141 8.26064453 -1.30859375 9.35546875 C-1.53675781 9.89816406 -1.76492188 10.44085938 -2 11 C-2.33 11 -2.66 11 -3 11 C-3.32613618 6.32538149 -2.70582788 3.83325617 0 0 Z " fill="#F9DADF" transform="translate(683,421)"/>
</svg>
