<?xml version="1.0" encoding="UTF-8"?>
<svg version="1.1" xmlns="http://www.w3.org/2000/svg" width="512" height="512">
<path d="M0 0 C0.72453536 -0.00453111 1.44907073 -0.00906223 2.19556171 -0.01373065 C4.60031515 -0.02629445 7.00483977 -0.02475951 9.40962219 -0.02310181 C11.14338468 -0.02909216 12.87714451 -0.03589888 14.61090088 -0.04345703 C19.30537954 -0.06107469 23.99978521 -0.06581068 28.69429374 -0.0670886 C31.63256631 -0.0685134 34.57082052 -0.07278928 37.50908852 -0.07808304 C47.77509863 -0.09657082 58.04105692 -0.10475541 68.30708313 -0.10317993 C77.85124756 -0.10197957 87.39518547 -0.12306454 96.93929261 -0.15466726 C105.1536126 -0.18088988 113.36785889 -0.19154469 121.58222038 -0.19026911 C126.47923844 -0.18976115 131.37605515 -0.19535216 136.27303123 -0.21662521 C140.88360123 -0.23610819 145.49377992 -0.23606386 150.1043644 -0.22159195 C151.78726402 -0.21951502 153.47018879 -0.22413743 155.15304565 -0.23631287 C173.39435873 -0.35963816 188.59751741 4.14436059 202.0905304 16.99789429 C203.21781555 18.12131226 203.21781555 18.12131226 204.36787415 19.26742554 C205.00596008 19.88230835 205.64404602 20.49719116 206.3014679 21.13070679 C217.54833868 32.82845435 221.88874308 48.70643896 221.71748352 64.55453491 C221.196547 81.26674159 215.05008549 95.78252491 203.2545929 107.57601929 C189.52423924 120.37739097 174.92684885 125.66879057 156.36787415 125.39242554 C155.21158508 125.3834021 154.05529602 125.37437866 152.8639679 125.36508179 C150.03171767 125.34167476 147.19990795 125.30888549 144.36787415 125.26742554 C144.37063952 126.37635823 144.3734049 127.48529093 144.37625408 128.62782764 C144.44312634 155.72580395 144.49228043 182.82376945 144.52331066 209.9218111 C144.53871903 223.02671063 144.55969194 236.13155535 144.5941925 249.23641968 C144.62428087 260.67087554 144.64349284 272.10529168 144.65013963 283.53978604 C144.65401926 289.58311113 144.6630081 295.62632263 144.68506432 301.66961098 C144.90342685 364.0183191 137.51389273 419.25826938 94.36787415 467.26742554 C93.46488586 468.28062866 93.46488586 468.28062866 92.5436554 469.31430054 C69.56916578 493.61980593 32.78040939 510.62257774 -0.67575073 512.37443542 C-2.80357508 512.43057617 -4.92938379 512.45771183 -7.0579071 512.47055054 C-7.83885742 512.47761017 -8.61980774 512.4846698 -9.42442322 512.49194336 C-41.91781115 512.71907675 -41.91781115 512.71907675 -55.63212585 509.26742554 C-56.46904968 509.0634314 -57.30597351 508.85943726 -58.16825867 508.64926147 C-70.18926157 505.6516466 -81.50035335 501.6966494 -92.63212585 496.26742554 C-93.60150085 495.79691772 -94.57087585 495.32640991 -95.56962585 494.84164429 C-108.79093242 488.01960383 -120.11835279 478.68745439 -130.63212585 468.26742554 C-131.4210321 467.49140991 -132.20993835 466.71539429 -133.02275085 465.91586304 C-144.38583762 454.02140891 -153.01565423 439.25443612 -159.63212585 424.26742554 C-159.93457214 423.58277222 -160.23701843 422.8981189 -160.54862976 422.19271851 C-173.82029027 391.50863941 -184.77007108 345.13405799 -173.9485321 312.44320679 C-166.40353351 294.24117754 -154.51944062 281.64606165 -136.44462585 273.82992554 C-119.09985172 267.65349377 -100.98139698 269.35375251 -84.38212585 276.82992554 C-68.88393811 285.17996955 -57.78449472 299.85705138 -52.6282196 316.50961304 C-50.74063847 324.26055006 -50.32588645 331.8608671 -50.03837585 339.7906189 C-49.44733532 354.13019271 -47.07993625 368.67811362 -36.81962585 379.35336304 C-29.82236978 385.47596211 -21.69854398 386.35566318 -12.63212585 386.26742554 C-4.62648597 385.63599479 2.02109233 383.01353927 7.43037415 376.95883179 C16.14507843 364.85312362 17.50898292 349.31820378 17.52609253 334.87104797 C17.53103051 333.96906018 17.53596848 333.06707239 17.5410561 332.13775164 C17.55631745 329.13922994 17.56476064 326.14072946 17.57319641 323.1421814 C17.58278389 320.98324398 17.59279447 318.82430841 17.60319519 316.66537476 C17.63015612 310.82106461 17.65121324 304.97674646 17.67119718 299.13240886 C17.69311126 293.01850993 17.72047336 286.90463543 17.74725342 280.79075623 C17.79710711 269.22067282 17.84207304 257.6505758 17.88527578 246.08046585 C17.93471084 232.90515913 17.98960568 219.72987692 18.04495537 206.55459392 C18.15866297 179.45889401 18.26552633 152.36317057 18.36787415 125.26742554 C17.66815491 125.28313599 16.96843567 125.29884644 16.24751282 125.31503296 C13.01688519 125.37814884 9.78638796 125.41665634 6.55537415 125.45492554 C5.4551593 125.48006226 4.35494446 125.50519897 3.22138977 125.53109741 C-12.61311784 125.6712258 -27.2626868 119.84693426 -39.3235321 109.54867554 C-51.36636728 97.6484797 -58.77221687 82.58424209 -58.96195984 65.61898804 C-58.83450743 46.03080935 -53.64313394 30.63769024 -39.63212585 16.26742554 C-28.55810001 6.54389065 -14.84707949 0.03862448 0 0 Z " fill="#EE8EB4" transform="translate(233.6321258544922,-0.267425537109375)"/>
<path d="M0 0 C4.21360859 2.65640541 7.12095614 5.6814342 9.875 9.8125 C12.14815296 21.58817762 6.88418648 31.50807498 1.875 41.8125 C1.3785498 42.84673096 1.3785498 42.84673096 0.87207031 43.90185547 C-6.5298525 59.11691902 -16.41966225 71.68791663 -28.125 83.8125 C-28.71539062 84.46605469 -29.30578125 85.11960937 -29.9140625 85.79296875 C-43.64193005 100.61202577 -63.16922274 110.61844882 -82.125 116.8125 C-82.82802246 117.04453125 -83.53104492 117.2765625 -84.25537109 117.515625 C-98.04385883 121.99867362 -111.12974575 123.96509695 -125.625 124.1875 C-127.18456421 124.22677612 -127.18456421 124.22677612 -128.77563477 124.2668457 C-134.90396319 124.28028611 -138.47085778 123.91204234 -143.125 119.8125 C-147.86208415 114.56329865 -148.49451221 110.49115977 -148.39453125 103.6015625 C-147.92339176 98.72629296 -146.25004091 95.65495216 -142.55712891 92.453125 C-136.58337928 88.32296788 -131.12310721 87.9678993 -124 87.6875 C-121.76001247 87.55210188 -119.52040685 87.41022259 -117.28125 87.26171875 C-116.21390625 87.19130371 -115.1465625 87.12088867 -114.046875 87.04833984 C-108.24055934 86.57968168 -102.73176766 85.39867043 -97.125 83.8125 C-95.32095703 83.30589844 -95.32095703 83.30589844 -93.48046875 82.7890625 C-79.26904064 78.42757375 -67.14256042 71.87046644 -56.125 61.8125 C-55.40828125 61.16539062 -54.6915625 60.51828125 -53.953125 59.8515625 C-43.40449329 49.83445099 -35.38435239 36.91904066 -29.90234375 23.49609375 C-29.52263428 22.56780762 -29.1429248 21.63952148 -28.75170898 20.68310547 C-28.01970461 18.85872533 -27.30829986 17.02589542 -26.62133789 15.18408203 C-23.70880009 7.85326107 -19.45363491 3.24075861 -12.5625 -0.625 C-7.99741588 -1.67848095 -4.39910449 -1.67165971 0 0 Z " fill="#E86498" transform="translate(341.125,371.1875)"/>
<path d="M0 0 C2.6022908 2.71827033 3.08734767 4.82995751 3.21484375 8.52734375 C1.804141 12.759452 1.04546203 13.8081929 -2.91015625 15.90234375 C-4.81826951 16.26341322 -6.73697087 16.57035281 -8.66015625 16.83984375 C-15.74837326 17.83498752 -21.07113963 20.14005731 -26.22265625 25.15234375 C-33.52715758 37.05597555 -33.76101263 48.26314485 -31.91015625 61.83984375 C-29.54432485 79.58043038 -29.54432485 79.58043038 -32.78515625 85.08984375 C-35.30284212 87.2372817 -36.43218814 87.83861467 -39.72265625 88.27734375 C-42.98429276 87.89362181 -44.67460504 87.32358886 -46.87890625 84.84375 C-49.28177054 80.32017595 -49.40162987 74.92127805 -49.91015625 69.90234375 C-50.03716919 68.92467041 -50.03716919 68.92467041 -50.16674805 67.92724609 C-51.00459129 61.29853857 -51.16476766 54.70382778 -51.22265625 48.02734375 C-51.25166016 46.92003906 -51.28066406 45.81273437 -51.31054688 44.671875 C-51.40567808 32.2170047 -47.18036441 20.59337125 -38.58203125 11.41796875 C-29.84241761 3.21452772 -12.27456156 -7.05348016 0 0 Z " fill="#FEFDFD" transform="translate(125.91015625,290.09765625)"/>
<path d="M0 0 C0.74121094 -0.02449219 1.48242188 -0.04898438 2.24609375 -0.07421875 C5.82738621 1.10344066 7.80066345 3.47407375 9.5625 6.6875 C9.97960382 9.48928706 10.1625131 11.78060763 10.125 14.5625 C10.35106671 22.9117705 11.66115184 28.16544248 17.75 34 C27.02355598 40.99780549 37.947142 40.14214786 49.0078125 40.19873047 C51.13573616 40.21446109 53.26292411 40.24743607 55.390625 40.28125 C57.2763623 40.29188477 57.2763623 40.29188477 59.20019531 40.30273438 C62.82819277 40.71790457 64.68030264 41.48673737 67.5625 43.6875 C69.92336122 47.22879184 70.13519578 48.51500218 69.5625 52.6875 C67.93863584 55.2234136 66.85872601 56.85996847 64.5625 58.6875 C61.57496013 59.27949562 59.41244436 59.48783912 56.4375 59.4140625 C55.65415283 59.41505951 54.87080566 59.41605652 54.0637207 59.41708374 C52.40614684 59.41241261 50.74855749 59.3930147 49.09130859 59.35986328 C46.59728705 59.31315154 44.10762226 59.31868195 41.61328125 59.33203125 C27.07788985 59.28166796 14.54887786 56.9220884 3.5625 46.6875 C-5.46722075 36.3999077 -8.48647351 26.68265841 -8.75 13.0625 C-8.78738281 11.79148437 -8.82476562 10.52046875 -8.86328125 9.2109375 C-8.20186255 3.73754603 -5.83743558 -0.03035062 0 0 Z " fill="#FEFCFD" transform="translate(201.4375,48.3125)"/>
</svg>
